<svg width="320" height="160" viewBox="0 0 320 160" fill="none" xmlns="http://www.w3.org/2000/svg">
<path d="M0 4C0 1.79086 1.79086 0 4 0H316C318.209 0 320 1.79086 320 4V156C320 158.209 318.209 160 316 160H4C1.79086 160 0 158.209 0 156V4Z" fill="#F3F3F1"/>
<circle cx="159.397" cy="123.925" r="4.83019" stroke="#F36A1D" stroke-width="2"/>
<path d="M130.416 80.4528V80.4528C130.416 107.129 108.79 128.755 82.1136 128.755H24.1514" stroke="#777574"/>
<path d="M189.584 80.4528V80.4528C189.584 107.129 211.21 128.755 237.886 128.755H295.849" stroke="#B4B2AF"/>
<path d="M214.944 82.8679V82.8679C214.944 97.5399 226.838 109.434 241.51 109.434V109.434" stroke="#CBCBC9"/>
<path d="M101.434 82.8679V82.8679C101.434 97.5399 89.5402 109.434 74.8682 109.434V109.434" stroke="#E2E1DF"/>
<path d="M158.188 104.604V65.9623" stroke="#B4B2AF"/>
<path d="M158.188 56.3019V27.3207" stroke="#E2E1DF"/>
<path d="M189.585 68.3774V49.0566" stroke="#777574"/>
<path d="M130.415 68.3774V49.0566" stroke="#E2E1DF"/>
</svg>
