<svg width="320" height="160" viewBox="0 0 320 160" fill="none" xmlns="http://www.w3.org/2000/svg">
<path d="M0 4C0 1.79086 1.79086 0 4 0H316C318.209 0 320 1.79086 320 4V156C320 158.209 318.209 160 316 160H4C1.79086 160 0 158.209 0 156V4Z" fill="#F3F3F1"/>
<path d="M28.9814 80.4528H135.246" stroke="#777574"/>
<circle cx="159.397" cy="80.4528" r="4.83019" stroke="#F36A1D" stroke-width="2"/>
<path d="M245.132 23.6981L181.742 74.1956C177.721 77.3983 177.721 83.5073 181.742 86.7101L245.132 137.208" stroke="#E2E1DF"/>
<path d="M295.849 26.1132L193.213 76.8673C190.243 78.3356 190.243 82.5701 193.213 84.0384L295.849 134.792" stroke="#B4B2AF"/>
<path d="M297.358 103.094L266.264 95.5472L212.083 82.3964C210.045 81.9018 210.045 79.0038 212.083 78.5092L266.264 65.3585L297.358 57.8113" stroke="#777574"/>
</svg>
