<svg width="320" height="160" viewBox="0 0 320 160" fill="none" xmlns="http://www.w3.org/2000/svg">
<path d="M0 4C0 1.79086 1.79086 0 4 0H316C318.209 0 320 1.79086 320 4V156C320 158.209 318.209 160 316 160H4C1.79086 160 0 158.209 0 156V4Z" fill="#F3F3F1"/>
<circle cx="160.603" cy="81.6604" r="4.83019" transform="rotate(180 160.603 81.6604)" stroke="#F36A1D" stroke-width="2"/>
<path d="M167.849 129.962V129.962C167.849 103.286 189.474 81.6604 216.151 81.6604L286.188 81.6604" stroke="#B4B2AF"/>
<path d="M153.358 30.9434V30.9434C153.358 57.6198 131.733 79.2453 105.056 79.2453L35.0186 79.2453" stroke="#777574"/>
<path d="M124.377 86.4905V86.4905C140.383 86.4905 153.358 99.4658 153.358 115.472L153.358 142.038" stroke="#CBCBC9"/>
<path d="M196.83 74.4151V74.4151C180.824 74.4151 167.849 61.4398 167.849 45.434L167.849 18.8679" stroke="#E2E1DF"/>
</svg>
