<svg width="20" height="20" viewBox="0 0 20 20" fill="none" xmlns="http://www.w3.org/2000/svg">
<path d="M16.2056 7.21501C15.9992 6.79886 15.6803 6.44885 15.2852 6.20465C14.89 5.96044 14.4343 5.83182 13.9698 5.83334H6.0298C5.56527 5.83182 5.1096 5.96044 4.71443 6.20465C4.31926 6.44885 4.00039 6.79886 3.79397 7.21501L1.88897 11.025C1.19592 12.415 0.834521 13.9468 0.833138 15.5V18.3333H2.4998V20H6.66647V18.3333H13.3331V20H17.4998V18.3333H19.1665V15.5C19.1647 13.9476 18.8033 12.4168 18.1106 11.0275L16.2056 7.21501ZM5.28897 7.96501C5.35677 7.8261 5.46209 7.70893 5.59301 7.62675C5.72393 7.54458 5.87523 7.50067 6.0298 7.50001H13.9698C14.1246 7.49951 14.2765 7.54243 14.4082 7.62388C14.5399 7.70534 14.6461 7.82207 14.7148 7.96084L16.5681 11.6667H3.43147L5.28897 7.96501ZM17.4998 16.6667H2.4998V15.5C2.5001 14.7683 2.59676 14.0398 2.7873 13.3333H4.16647V14.1667C4.16647 14.3877 4.25427 14.5996 4.41055 14.7559C4.56683 14.9122 4.77879 15 4.9998 15C5.22082 15 5.43278 14.9122 5.58906 14.7559C5.74534 14.5996 5.83314 14.3877 5.83314 14.1667V13.3333H14.1665V14.1667C14.1665 14.3877 14.2543 14.5996 14.4105 14.7559C14.5668 14.9122 14.7788 15 14.9998 15C15.2208 15 15.4328 14.9122 15.5891 14.7559C15.7453 14.5996 15.8331 14.3877 15.8331 14.1667V13.3333H17.2123C17.4028 14.0398 17.4995 14.7683 17.4998 15.5V16.6667ZM19.9498 4.60668L19.214 6.10668L10.3673 1.75001C10.2528 1.69369 10.127 1.6644 9.99939 1.6644C9.87181 1.6644 9.74594 1.69369 9.63147 1.75001L0.785638 6.10251L0.0498047 4.60668L8.89647 0.25668C9.24007 0.0888708 9.61742 0.00164795 9.9998 0.00164795C10.3822 0.00164795 10.7595 0.0888708 11.1031 0.25668L19.9498 4.60668Z" fill="#4F4C4A"/>
</svg>
