<svg width="20" height="20" viewBox="0 0 20 20" fill="none" xmlns="http://www.w3.org/2000/svg">
<path d="M15.8333 11.6667C15.2703 11.6667 14.7345 11.7822 14.2448 11.9842C13.8435 10.6935 13.8435 9.30674 14.2448 8.01699C14.7345 8.21973 15.2703 8.3335 15.8333 8.3335C18.1348 8.33325 20 6.46802 20 4.16675C20 1.86523 18.1348 0 15.8333 0C13.532 0 11.6667 1.86523 11.6667 4.16675C11.6667 4.72974 11.7815 5.26548 11.9842 5.75601C10.6935 6.15698 9.30674 6.15698 8.01597 5.75498C8.2187 5.26523 8.33345 4.72949 8.33345 4.1665C8.33325 1.86602 6.46802 0 4.16675 0C1.86523 0 0 1.86602 0 4.16675C0 6.46802 1.86523 8.33325 4.16675 8.33325C4.72974 8.33325 5.26548 8.21948 5.75522 8.01675C6.15571 9.30649 6.15571 10.6933 5.75449 11.984C5.26548 11.782 4.72974 11.6665 4.16675 11.6665C1.86523 11.6667 0 13.532 0 15.8333C0 18.1348 1.86523 20 4.16675 20C6.46802 20 8.33325 18.1348 8.33325 15.8333C8.33325 15.2703 8.21851 14.7345 8.01577 14.2448C9.30654 13.8443 10.6933 13.8443 11.983 14.2448C11.7812 14.7345 11.6665 15.2703 11.6665 15.8333C11.6667 18.1348 13.532 20 15.8333 20C18.1348 20 20 18.1348 20 15.8333C20 13.532 18.1348 11.6667 15.8333 11.6667ZM4.16675 18.3333C2.78647 18.3333 1.66675 17.2135 1.66675 15.8333C1.66675 14.453 2.78647 13.3333 4.16675 13.3333C4.48174 13.3333 4.78027 13.3985 5.05776 13.5042C4.79302 13.9325 4.48052 14.3393 4.1105 14.7103L2.9875 15.8333L4.16577 17.0118L5.2855 15.8935C5.65723 15.5208 6.06602 15.2083 6.49575 14.943C6.60151 15.2195 6.66675 15.5193 6.66675 15.8333C6.66675 17.2135 5.54702 18.3333 4.16675 18.3333ZM6.49575 5.0585C6.06602 4.79248 5.65825 4.47925 5.28623 4.10698L4.16577 2.98799L2.9875 4.1665L4.10649 5.28701C4.47925 5.65874 4.79175 6.06724 5.05801 6.49551C4.78052 6.602 4.48174 6.6665 4.16699 6.6665C2.78672 6.6665 1.66699 5.54727 1.66699 4.1665C1.66699 2.78623 2.78672 1.6665 4.16699 1.6665C5.54727 1.6665 6.66699 2.78623 6.66699 4.1665C6.66675 4.48252 6.60151 4.78027 6.49575 5.0585ZM10 12.2737C9.05449 12.2737 8.13223 12.43 7.26401 12.7312C7.87354 10.9652 7.87427 9.03501 7.26499 7.27051C8.13325 7.57002 9.05449 7.727 10 7.727C10.943 7.727 11.862 7.57148 12.7277 7.27227C12.4292 8.13804 12.2737 9.05752 12.2737 10C12.2737 10.944 12.4292 11.8635 12.7287 12.7295C11.862 12.43 10.943 12.2737 10 12.2737ZM15.8333 1.66675C17.2135 1.66675 18.3333 2.78647 18.3333 4.16675C18.3333 5.54702 17.2135 6.66675 15.8333 6.66675C15.5183 6.66675 15.2197 6.60225 14.9422 6.49575C15.2077 6.06675 15.5208 5.65898 15.893 5.28623L17.012 4.1665L15.8335 2.98799L14.7145 4.10698C14.3417 4.479 13.934 4.79297 13.5042 5.0585C13.3985 4.78022 13.3333 4.48223 13.3333 4.16675C13.3333 2.78652 14.4533 1.66675 15.8333 1.66675ZM15.8333 18.3333C14.453 18.3333 13.3333 17.2135 13.3333 15.8333C13.3333 15.5192 13.3985 15.2197 13.5042 14.943C13.9333 15.2083 14.3417 15.5208 14.7138 15.8935L15.8335 17.0118L17.012 15.8333L15.893 14.7135C15.521 14.3425 15.2078 13.9338 14.9423 13.504C15.2198 13.3982 15.5186 13.333 15.8333 13.333C17.2136 13.333 18.3333 14.4527 18.3333 15.833C18.3333 17.2135 17.2135 18.3333 15.8333 18.3333Z" fill="#353432"/>
</svg>
