<svg width="18" height="20" viewBox="0 0 18 20" fill="none" xmlns="http://www.w3.org/2000/svg">
<path d="M14.8332 20H3.1665C2.50605 20 1.87243 19.7387 1.40402 19.2731C0.935607 18.8075 0.670467 18.1754 0.666504 17.515V4.60167L8.99984 0L17.3332 4.60167V17.5183C17.3283 18.1782 17.0628 18.8094 16.5945 19.2743C16.1262 19.7391 15.4931 20 14.8332 20ZM2.33317 5.57667V17.515C2.33449 17.7351 2.42287 17.9458 2.57901 18.101C2.73515 18.2562 2.94635 18.3433 3.1665 18.3433H14.8332C15.0533 18.3433 15.2645 18.2562 15.4207 18.101C15.5768 17.9458 15.6652 17.7351 15.6665 17.515V5.57667L8.99984 1.895L2.33317 5.57667Z" fill="#161514"/>
</svg>
