<svg width="56" height="56" viewBox="0 0 56 56" fill="none" xmlns="http://www.w3.org/2000/svg">
<ellipse cx="28" cy="28" rx="28" ry="28" transform="rotate(90 28 28)" fill="white"/>
<path fill-rule="evenodd" clip-rule="evenodd" d="M37.8142 19.1427L30.7483 30.7437L19.1248 37.8319C18.9925 37.8835 18.8481 37.8958 18.709 37.8674C18.5698 37.8391 18.4418 37.7712 18.3402 37.672C18.2386 37.5727 18.1677 37.4463 18.1361 37.3079C18.1045 37.1694 18.1134 37.0248 18.1618 36.8913L25.0485 25.0664L36.8736 18.1797C37.3999 17.8998 38.1054 18.6276 37.8142 19.1427ZM29.6285 29.6239L26.2691 26.2646L21.2972 34.7189L29.6285 29.6239Z" fill="#747B85"/>
<path fill-rule="evenodd" clip-rule="evenodd" d="M28.0001 8C39.0461 8 48.0001 16.954 48.0001 28C48.0001 39.046 39.0461 48 28.0001 48C16.9541 48 8.00012 39.046 8.00012 28C8.00012 16.954 16.9541 8 28.0001 8ZM30.0001 11.116L30.0001 12.5C30.0001 12.8978 29.8421 13.2794 29.5608 13.5607C29.2795 13.842 28.8979 14 28.5001 14C28.1023 14 27.7208 13.842 27.4395 13.5607C27.1582 13.2794 27.0001 12.8978 27.0001 12.5L27.0001 11.028C23.0165 11.2631 19.2425 12.8917 16.3386 15.6289C13.4348 18.366 11.5861 22.0372 11.1161 26L12.5001 26C12.8979 26 13.2795 26.158 13.5608 26.4393C13.8421 26.7206 14.0001 27.1022 14.0001 27.5C14.0001 27.8978 13.8421 28.2794 13.5608 28.5607C13.2795 28.842 12.8979 29 12.5001 29L11.0301 29C11.2755 33.1554 13.0369 37.0764 15.9803 40.0198C18.9237 42.9632 22.8447 44.7246 27.0001 44.97L27.0001 43.5C27.0001 43.1022 27.1582 42.7206 27.4395 42.4393C27.7208 42.158 28.1023 42 28.5001 42C28.8979 42 29.2795 42.158 29.5608 42.4393C29.8421 42.7206 30.0001 43.1022 30.0001 43.5L30.0001 44.884C33.9629 44.4141 37.6341 42.5654 40.3713 39.6615C43.1084 36.7576 44.737 32.9836 44.9721 29L43.5001 29C43.1023 29 42.7208 28.842 42.4395 28.5607C42.1582 28.2794 42.0001 27.8978 42.0001 27.5C42.0001 27.1022 42.1582 26.7206 42.4395 26.4393C42.7208 26.158 43.1023 26 43.5001 26L44.8841 26C44.4339 22.2085 42.7211 18.6787 40.0212 15.9789C37.3214 13.2791 33.7916 11.5662 30.0001 11.116Z" fill="#747B85"/>
</svg>
