<svg width="24" height="24" viewBox="0 0 24 24" fill="none" xmlns="http://www.w3.org/2000/svg">
<g clip-path="url(#clip0_330_2691)">
<path d="M15 24L9 19.5V14.38L1 5.38V3C1 2.20435 1.31607 1.44129 1.87868 0.878679C2.44129 0.31607 3.20435 0 4 0L20 0C20.7957 0 21.5587 0.31607 22.1213 0.878679C22.6839 1.44129 23 2.20435 23 3V5.38L15 14.38V24ZM11 18.5L13 20V13.62L21 4.62V3C21 2.73478 20.8946 2.48043 20.7071 2.29289C20.5196 2.10536 20.2652 2 20 2H4C3.73478 2 3.48043 2.10536 3.29289 2.29289C3.10536 2.48043 3 2.73478 3 3V4.62L11 13.62V18.5Z" fill="#4F4C4A"/>
</g>
<defs>
<clipPath id="clip0_330_2691">
<rect width="24" height="24" fill="white"/>
</clipPath>
</defs>
</svg>
