<svg width="283" height="173" viewBox="0 0 283 173" fill="none" xmlns="http://www.w3.org/2000/svg">
<path d="M61.2575 173C48.3698 172.945 37.3581 169.529 28.2225 162.751C19.0869 155.973 12.0992 146.107 7.25955 133.153C2.41985 120.198 0 104.593 0 86.336C0 68.1341 2.41985 52.5833 7.25955 39.6834C12.1536 26.7836 19.1685 16.9447 28.3041 10.1668C37.4941 3.38895 48.4786 0 61.2575 0C74.0365 0 84.9938 3.41627 94.1294 10.2488C103.265 17.0267 110.253 26.8656 115.092 39.7654C119.986 52.6106 122.433 68.1341 122.433 86.336C122.433 104.647 120.014 120.28 115.174 133.235C110.334 146.134 103.347 156.001 94.211 162.833C85.0754 169.611 74.0909 173 61.2575 173ZM61.2575 151.109C72.5683 151.109 81.4048 145.561 87.7671 134.464C94.1838 123.368 97.3921 107.326 97.3921 86.336C97.3921 72.3976 95.9239 60.6183 92.9875 50.9981C90.1054 41.3232 85.9454 33.9987 80.5076 29.0247C75.1241 23.9959 68.7074 21.4815 61.2575 21.4815C50.0012 21.4815 41.1646 27.0569 34.7479 38.2076C28.3313 49.3583 25.0957 65.4011 25.0414 86.336C25.0414 100.329 26.4824 112.163 29.3645 121.838C32.3009 131.458 36.4609 138.755 41.8444 143.729C47.2278 148.649 53.6989 151.109 61.2575 151.109Z" fill="#F3F3F1"/>
<path d="M214.748 2.29574V170.212H189.462V27.7128H188.483L148.515 53.9498V29.6806L190.196 2.29574H214.748Z" fill="#F3F3F1"/>
<path d="M266.686 171.77C262.227 171.77 258.394 170.185 255.185 167.015C251.977 163.79 250.373 159.909 250.373 155.372C250.373 150.89 251.977 147.064 255.185 143.893C258.394 140.668 262.227 139.056 266.686 139.056C271.145 139.056 274.979 140.668 278.188 143.893C281.396 147.064 283 150.89 283 155.372C283 158.378 282.239 161.139 280.716 163.653C279.248 166.113 277.29 168.081 274.843 169.556C272.396 171.032 269.677 171.77 266.686 171.77Z" fill="#F3F3F1"/>
</svg>
