<svg width="27" height="26" viewBox="0 0 27 26" fill="none" xmlns="http://www.w3.org/2000/svg">
<mask id="mask0_418_3809" style="mask-type:alpha" maskUnits="userSpaceOnUse" x="0" y="0" width="27" height="26">
<rect width="27" height="26" fill="#D9D9D9"/>
</mask>
<g mask="url(#mask0_418_3809)">
<path fill-rule="evenodd" clip-rule="evenodd" d="M51 -220C51 -233.255 40.2548 -244 27 -244H-472C-485.255 -244 -496 -233.255 -496 -220V-24C-496 -10.7452 -485.255 0 -472 0H3C16.2548 0 27 10.7452 27 24V32C27 45.2548 37.7452 56 51 56H550C563.255 56 574 45.2548 574 32V-72C574 -85.2548 563.255 -96 550 -96H337C325.954 -96 317 -104.954 317 -116V-116C317 -127.046 308.046 -136 297 -136H152C140.954 -136 132 -127.046 132 -116V-116C132 -104.954 123.046 -96 112 -96H75C61.7452 -96 51 -106.745 51 -120V-220Z" fill="#FBFBFA"/>
</g>
</svg>
