<svg width="278" height="252" viewBox="0 0 278 252" fill="none" xmlns="http://www.w3.org/2000/svg">
<path fill-rule="evenodd" clip-rule="evenodd" d="M0 16C0 7.16344 7.16345 0 16 0H93C100.732 0 107 6.26801 107 14C107 21.732 113.268 28 121 28H132C139.732 28 146 21.732 146 14C146 6.26801 152.268 0 160 0H201H240H258H262C270.837 0 278 7.16344 278 16V200C278 208.837 270.837 216 262 216H258H240H217C208.163 216 201 223.163 201 232V236C201 244.837 193.837 252 185 252H146H107H104H16C7.16344 252 0 244.837 0 236V16Z" fill="#F36A1D"/>
</svg>
