<svg width="26" height="20" viewBox="0 0 26 20" fill="none" xmlns="http://www.w3.org/2000/svg">
<path d="M0 20V14.7368C0 13.1384 0.281764 11.4425 0.845291 9.64912C1.42825 7.83626 2.26383 6.09162 3.35202 4.41521C4.45964 2.7193 5.79073 1.24756 7.34529 0L11.0762 3.04093C9.85202 4.79532 8.78326 6.62768 7.86996 8.53801C6.97608 10.4288 6.52915 12.4561 6.52915 14.6199V20H0ZM14.9238 20V14.7368C14.9238 13.1384 15.2055 11.4425 15.7691 9.64912C16.352 7.83626 17.1876 6.09162 18.2758 4.41521C19.3834 2.7193 20.7145 1.24756 22.2691 0L26 3.04093C24.7758 4.79532 23.707 6.62768 22.7937 8.53801C21.8998 10.4288 21.4529 12.4561 21.4529 14.6199V20H14.9238Z" fill="#232221"/>
</svg>
