<svg width="56" height="56" viewBox="0 0 56 56" fill="none" xmlns="http://www.w3.org/2000/svg">
<path fill-rule="evenodd" clip-rule="evenodd" d="M6.125 5.25C6.60825 5.25 7 5.64175 7 6.125V8.85938C7 9.34262 6.60825 9.73438 6.125 9.73438C5.64175 9.73438 5.25 9.34262 5.25 8.85938V6.125C5.25 5.64175 5.64175 5.25 6.125 5.25ZM6.125 13.4531C6.60825 13.4531 7 13.8449 7 14.3281V19.7969C7 20.2801 6.60825 20.6719 6.125 20.6719C5.64175 20.6719 5.25 20.2801 5.25 19.7969V14.3281C5.25 13.8449 5.64175 13.4531 6.125 13.4531ZM6.125 24.3906C6.60825 24.3906 7 24.7824 7 25.2656V30.7344C7 31.2176 6.60825 31.6094 6.125 31.6094C5.64175 31.6094 5.25 31.2176 5.25 30.7344V25.2656C5.25 24.7824 5.64175 24.3906 6.125 24.3906ZM6.125 35.3281C6.60825 35.3281 7 35.7199 7 36.2031V41.6719C7 42.1551 6.60825 42.5469 6.125 42.5469C5.64175 42.5469 5.25 42.1551 5.25 41.6719V36.2031C5.25 35.7199 5.64175 35.3281 6.125 35.3281ZM6.125 46.2656C6.60825 46.2656 7 46.6574 7 47.1406V49H8.85938C9.34262 49 9.73438 49.3918 9.73438 49.875C9.73438 50.3582 9.34262 50.75 8.85938 50.75H6.125C5.64175 50.75 5.25 50.3582 5.25 49.875V47.1406C5.25 46.6574 5.64175 46.2656 6.125 46.2656ZM13.4531 49.875C13.4531 49.3918 13.8449 49 14.3281 49H19.7969C20.2801 49 20.6719 49.3918 20.6719 49.875C20.6719 50.3582 20.2801 50.75 19.7969 50.75H14.3281C13.8449 50.75 13.4531 50.3582 13.4531 49.875ZM24.3906 49.875C24.3906 49.3918 24.7824 49 25.2656 49H30.7344C31.2176 49 31.6094 49.3918 31.6094 49.875C31.6094 50.3582 31.2176 50.75 30.7344 50.75H25.2656C24.7824 50.75 24.3906 50.3582 24.3906 49.875ZM35.3281 49.875C35.3281 49.3918 35.7199 49 36.2031 49H41.6719C42.1551 49 42.5469 49.3918 42.5469 49.875C42.5469 50.3582 42.1551 50.75 41.6719 50.75H36.2031C35.7199 50.75 35.3281 50.3582 35.3281 49.875ZM46.2656 49.875C46.2656 49.3918 46.6574 49 47.1406 49H50.75V50.75H47.1406C46.6574 50.75 46.2656 50.3582 46.2656 49.875Z" fill="#777574"/>
<path fill-rule="evenodd" clip-rule="evenodd" d="M47.25 7.875C46.2835 7.875 45.5 8.6585 45.5 9.625C45.5 10.5915 46.2835 11.375 47.25 11.375C48.2165 11.375 49 10.5915 49 9.625C49 8.6585 48.2165 7.875 47.25 7.875ZM43.75 9.625C43.75 7.692 45.317 6.125 47.25 6.125C49.183 6.125 50.75 7.692 50.75 9.625C50.75 11.558 49.183 13.125 47.25 13.125C45.317 13.125 43.75 11.558 43.75 9.625Z" fill="#F36A1D"/>
<path fill-rule="evenodd" clip-rule="evenodd" d="M10.5 45.0625C10.5 45.5457 10.8917 45.9375 11.375 45.9375H14.875C16.3247 45.9375 17.5 44.7623 17.5 43.3125L17.5 28.875C17.5 28.3918 17.8918 28 18.375 28L22.75 28V26.25L18.375 26.25C16.9253 26.25 15.75 27.4253 15.75 28.875L15.75 43.3125C15.75 43.7958 15.3582 44.1875 14.875 44.1875H11.375C10.8917 44.1875 10.5 44.5793 10.5 45.0625Z" fill="#C3C3BF"/>
<path fill-rule="evenodd" clip-rule="evenodd" d="M34.5625 10.5C34.0793 10.5 33.6875 10.8918 33.6875 11.375V25.375C33.6875 26.8247 32.5122 28 31.0625 28H25.375C24.8918 28 24.5 27.6082 24.5 27.125C24.5 26.6418 24.8918 26.25 25.375 26.25H31.0625C31.5457 26.25 31.9375 25.8582 31.9375 25.375V11.375C31.9375 9.92525 33.1128 8.75 34.5625 8.75H41.5625V10.5H34.5625Z" fill="#4F4C4A"/>
</svg>
