<svg width="178" height="20" viewBox="0 0 178 20" fill="none" xmlns="http://www.w3.org/2000/svg">
<path d="M172.129 0C170.688 0 169.366 0.519632 168.342 1.38222C168.087 1.59527 167.852 1.8343 167.632 2.08892C166.775 3.1074 166.258 4.41687 166.258 5.84066C166.258 7.05141 166.629 8.17901 167.266 9.10915C167.481 9.42093 167.721 9.71192 167.987 9.97694C169.048 11.0318 170.515 11.6813 172.129 11.6813C175.368 11.6813 178 9.06238 178 5.84066C178 2.61895 175.368 0 172.129 0ZM167.199 5.84066C167.199 4.54678 167.705 3.37241 168.531 2.49423L171.053 3.63223C171.142 3.6738 171.194 3.75694 171.194 3.85047V4.37011C171.194 4.47403 171.121 4.57276 171.022 4.60394L170.4 4.78581C170.071 4.87935 169.852 5.17554 169.852 5.5133C169.852 5.85106 170.071 6.14725 170.395 6.24598L173.153 7.07739C173.258 7.10857 173.326 7.2021 173.326 7.30603V8.26215C173.326 8.38686 173.231 8.49079 173.106 8.50118L168.358 8.98964C167.632 8.14264 167.199 7.04102 167.199 5.84066ZM172.129 10.746C171.069 10.746 170.087 10.4082 169.277 9.84183L173.2 9.43652C173.806 9.37416 174.26 8.87012 174.26 8.26735V7.31122C174.26 6.79159 173.921 6.33432 173.42 6.18362L171.215 5.51849L171.283 5.49771C171.779 5.35221 172.129 4.88974 172.129 4.37011V3.85047C172.129 3.388 171.858 2.9723 171.435 2.78003L169.309 1.81871C170.108 1.26271 171.079 0.935338 172.129 0.935338C174.851 0.935338 177.06 3.13338 177.06 5.84066C177.06 8.54795 174.851 10.746 172.129 10.746Z" fill="#161514"/>
<path d="M0 15.9744H5.97335C7.99659 15.9744 9.63444 14.345 9.63444 12.2364C9.63444 10.0319 7.99659 9.26516 7.99659 9.26516V9.16931C7.99659 9.16931 9.44175 8.30669 9.44175 6.29391C9.44175 4.18528 7.8039 2.55588 5.78066 2.55588H0V15.9744ZM1.54151 14.5367V9.93609H5.97335C7.12949 9.93609 8.09293 10.8946 8.09293 12.2364C8.09293 13.5783 7.12949 14.5367 5.97335 14.5367H1.54151ZM1.54151 8.59423V3.99359H5.78066C6.9368 3.99359 7.90024 4.95205 7.90024 6.29391C7.90024 7.63576 6.9368 8.59423 5.78066 8.59423H1.54151Z" fill="#161514"/>
<path d="M11.9399 15.9744H13.3851V9.84024C13.3851 8.49839 14.1559 7.73161 15.5047 7.73161H16.9498V6.38976H15.312C14.2522 6.38976 13.8668 6.77314 13.4814 7.34822H13.3851L13.1924 6.38976H11.9399V15.9744Z" fill="#161514"/>
<path d="M20.906 16.1661C23.0256 16.1661 23.8927 14.8243 23.8927 14.8243H23.989L24.1817 15.9744H25.4342V9.84024C25.4342 7.53992 23.989 6.19806 21.6767 6.19806C19.2681 6.19806 17.9193 7.63576 17.823 9.16931H19.2681C19.3645 8.30669 20.2316 7.53992 21.6767 7.53992C23.1219 7.53992 23.989 8.40254 23.989 9.84024V10.1278H21.3877C18.6901 10.1278 17.5339 11.3738 17.5339 13.1949C17.5339 14.9201 18.8827 16.1661 20.906 16.1661ZM20.906 14.8243C19.6535 14.8243 18.9791 14.1533 18.9791 13.1949C18.9791 12.2364 19.6535 11.4696 21.3877 11.4696H23.989V11.853C23.989 13.6741 22.8329 14.8243 20.906 14.8243Z" fill="#161514"/>
<path d="M32.0872 20C34.7849 20 36.4227 18.3706 36.4227 15.9744V6.38976H35.1702L34.9775 7.63576H34.8812C34.2068 6.77314 33.0507 6.19806 31.7982 6.19806C29.2932 6.19806 27.3663 8.115 27.3663 10.8946C27.3663 13.6741 29.2932 15.591 31.7982 15.591C33.0507 15.591 34.1104 15.1118 34.8812 14.2492H34.9775V15.9744C34.9775 17.6038 33.8214 18.6581 32.0872 18.6581C30.2567 18.6581 29.2932 17.6997 29.1969 16.7412H27.7517C27.8481 18.3706 29.3896 20 32.0872 20ZM31.8945 14.2492C30.1603 14.2492 28.8115 12.9073 28.8115 10.8946C28.8115 8.88177 30.1603 7.53992 31.8945 7.53992C33.6287 7.53992 34.9775 8.88177 34.9775 10.8946C34.9775 12.9073 33.6287 14.2492 31.8945 14.2492Z" fill="#161514"/>
<path d="M41.9158 16.1661C44.0354 16.1661 44.9025 14.8243 44.9025 14.8243H44.9989L45.1916 15.9744H46.444V9.84024C46.444 7.53992 44.9989 6.19806 42.6866 6.19806C40.278 6.19806 38.9292 7.63576 38.8328 9.16931H40.278C40.3743 8.30669 41.2414 7.53992 42.6866 7.53992C44.1318 7.53992 44.9989 8.40254 44.9989 9.84024V10.1278H42.3976C39.6999 10.1278 38.5438 11.3738 38.5438 13.1949C38.5438 14.9201 39.8926 16.1661 41.9158 16.1661ZM41.9158 14.8243C40.6634 14.8243 39.989 14.1533 39.989 13.1949C39.989 12.2364 40.6634 11.4696 42.3976 11.4696H44.9989V11.853C44.9989 13.6741 43.8427 14.8243 41.9158 14.8243Z" fill="#161514"/>
<path d="M52.808 15.9744H53.9642V3.70604H58.5887V2.55588H48.1835V3.70604H52.808V15.9744Z" fill="#161514"/>
<path d="M63.214 16.1661C65.7189 16.1661 66.8751 14.5559 67.3568 13.2907H66.1043C65.7189 14.0575 64.7555 15.016 63.214 15.016C61.4798 15.016 60.0346 13.77 59.8419 11.7572H67.588C67.588 11.7572 67.6458 11.4696 67.6458 10.9904C67.6458 8.115 65.7189 6.19806 63.214 6.19806C60.6127 6.19806 58.6858 8.115 58.6858 11.1821C58.6858 14.2492 60.6127 16.1661 63.214 16.1661ZM59.8419 10.607C60.0346 8.59423 61.3834 7.34822 63.214 7.34822C65.0445 7.34822 66.3933 8.69008 66.4897 10.607H59.8419Z" fill="#161514"/>
<path d="M73.7095 16.1661C75.8291 16.1661 77.4669 14.9201 77.9487 12.8115H76.6962C76.5035 13.5783 75.6364 15.016 73.7095 15.016C71.7826 15.016 70.3374 13.5783 70.3374 11.1821C70.3374 8.78592 71.7826 7.34822 73.7095 7.34822C75.6364 7.34822 76.5035 8.69008 76.6962 9.45685H77.9487C77.4669 7.44407 75.8291 6.19806 73.7095 6.19806C71.1082 6.19806 69.1813 8.115 69.1813 11.1821C69.1813 14.2492 71.1082 16.1661 73.7095 16.1661Z" fill="#161514"/>
<path d="M80.1653 15.9744H81.3215V10.2236C81.3215 8.59423 82.5739 7.34822 84.3081 7.34822C85.946 7.34822 87.1021 8.49838 87.1021 10.2236V15.9744H88.2583V10.2236C88.2583 7.82746 86.6204 6.19806 84.4045 6.19806C82.2849 6.19806 81.4178 7.63576 81.4178 7.63576H81.3215V2.55588H80.1653V15.9744Z" fill="#161514"/>
<path d="M91.1478 15.9744H92.304V10.2236C92.304 8.59423 93.5564 7.34822 95.2906 7.34822C96.9285 7.34822 98.0846 8.49838 98.0846 10.2236V15.9744H99.2408V10.2236C99.2408 7.82746 97.6029 6.19806 95.387 6.19806C93.2674 6.19806 92.4003 7.63576 92.4003 7.63576H92.304L92.1113 6.38976H91.1478V15.9744Z" fill="#161514"/>
<path d="M105.986 16.1661C108.491 16.1661 110.515 14.1533 110.515 11.1821C110.515 8.21084 108.491 6.19806 105.986 6.19806C103.481 6.19806 101.458 8.21084 101.458 11.1821C101.458 14.1533 103.481 16.1661 105.986 16.1661ZM105.986 15.016C104.156 15.016 102.614 13.4824 102.614 11.1821C102.614 8.88177 104.156 7.34822 105.986 7.34822C107.817 7.34822 109.358 8.88177 109.358 11.1821C109.358 13.4824 107.817 15.016 105.986 15.016Z" fill="#161514"/>
<path d="M112.819 15.9744H113.975V2.55588H112.819V15.9744Z" fill="#161514"/>
<path d="M120.824 16.1661C123.329 16.1661 125.352 14.1533 125.352 11.1821C125.352 8.21084 123.329 6.19806 120.824 6.19806C118.319 6.19806 116.296 8.21084 116.296 11.1821C116.296 14.1533 118.319 16.1661 120.824 16.1661ZM120.824 15.016C118.994 15.016 117.452 13.4824 117.452 11.1821C117.452 8.88177 118.994 7.34822 120.824 7.34822C122.655 7.34822 124.196 8.88177 124.196 11.1821C124.196 13.4824 122.655 15.016 120.824 15.016Z" fill="#161514"/>
<path d="M131.51 20C134.111 20 135.749 18.3706 135.749 15.9744V6.38976H134.786L134.593 7.9233H134.497C134.111 7.34822 133.052 6.19806 131.221 6.19806C128.812 6.19806 126.886 8.115 126.886 10.8946C126.886 13.6741 128.812 15.591 131.221 15.591C133.052 15.591 134.111 14.4409 134.497 13.8658H134.593V15.9744C134.593 17.6997 133.437 18.8498 131.51 18.8498C129.583 18.8498 128.62 17.8914 128.523 16.7412H127.367C127.502 18.4665 129.005 20 131.51 20ZM131.317 14.4409C129.487 14.4409 128.042 13.0032 128.042 10.8946C128.042 8.78592 129.487 7.34822 131.317 7.34822C133.148 7.34822 134.593 8.78592 134.593 10.8946C134.593 13.0032 133.148 14.4409 131.317 14.4409Z" fill="#161514"/>
<path d="M138.735 15.9744H139.891V6.38976H138.735V15.9744ZM138.639 4.18528H139.988V2.84342H138.639V4.18528Z" fill="#161514"/>
<path d="M146.741 16.1661C149.246 16.1661 150.402 14.5559 150.884 13.2907H149.631C149.246 14.0575 148.282 15.016 146.741 15.016C145.007 15.016 143.561 13.77 143.369 11.7572H151.115C151.115 11.7572 151.173 11.4696 151.173 10.9904C151.173 8.115 149.246 6.19806 146.741 6.19806C144.14 6.19806 142.213 8.115 142.213 11.1821C142.213 14.2492 144.14 16.1661 146.741 16.1661ZM143.369 10.607C143.561 8.59423 144.91 7.34822 146.741 7.34822C148.571 7.34822 149.92 8.69008 150.017 10.607H143.369Z" fill="#161514"/>
<path d="M156.369 16.1661C158.778 16.1661 160.03 14.9201 160.03 13.3866C160.03 11.9489 159.26 11.1629 157.429 10.7987L155.502 10.4153C154.442 10.2045 153.961 9.64855 153.961 8.88177C153.961 8.115 154.731 7.34822 156.273 7.34822C157.911 7.34822 158.778 8.21084 158.778 9.16931H159.934C159.934 7.53992 158.585 6.19806 156.273 6.19806C154.057 6.19806 152.805 7.44407 152.805 8.88177C152.805 10.4153 153.672 11.1821 155.309 11.508L157.236 11.8914C158.392 12.1214 158.874 12.6198 158.874 13.3866C158.874 14.2492 158.103 15.016 156.369 15.016C154.712 15.016 153.71 14.1725 153.71 13.1949H152.612C152.612 14.7284 154.076 16.1661 156.369 16.1661Z" fill="#161514"/>
</svg>
