<svg width="12" height="12" viewBox="0 0 12 12" fill="none" xmlns="http://www.w3.org/2000/svg">
<path d="M11.707 8.293C12.097 8.6825 12.097 9.3175 11.707 9.707L10.0605 11.3535L9.3535 10.6465L10.5 9.5H9C8.4485 9.5 8 9.9485 8 10.5V12H7V10.5C7 9.397 7.897 8.5 9 8.5H10.5L9.3535 7.3535L10.0605 6.6465L11.707 8.293ZM7.5 1C6.9485 1 6.5 1.4485 6.5 2V9.25C6.5 10.766 5.266 12 3.75 12C2.539 12 1.4925 11.222 1.1335 10.0825C0.4295 9.622 0 8.843 0 8C0 7.557 0.1175 7.1315 0.343 6.75C0.118 6.3685 0 5.943 0 5.5C0 4.716 0.376 3.98 1 3.5105V3.5C1 2.5515 1.6635 1.7555 2.551 1.551C2.7555 0.664 3.552 0 4.5 0C5.1005 0 5.633 0.271 6 0.691C6.367 0.271 6.8995 0 7.5 0C8.448 0 9.2445 0.6635 9.449 1.551C10.336 1.7555 11 2.5515 11 3.5V3.5105C11.624 3.98 12 4.7155 12 5.5C12 5.961 11.8665 6.401 11.623 6.7945L10.884 6.0555C10.958 5.8785 11 5.692 11 5.5C11 4.965 10.7045 4.4665 10.2285 4.1985L9.9195 4.0245C9.9195 4.0245 10 3.56 10 3.4995C10 2.948 9.5515 2.4995 9 2.4995H8.5V1.9995C8.5 1.448 8.0515 0.9995 7.5 0.9995V1ZM5.5 2C5.5 1.4485 5.0515 1 4.5 1C3.9485 1 3.5 1.4485 3.5 2V2.5H3C2.4485 2.5 2 2.9485 2 3.5C2 3.5605 2.0805 4.025 2.0805 4.025L1.7715 4.199C1.2955 4.4665 1 4.9655 1 5.5005C1 5.838 1.117 6.1615 1.3395 6.4365L1.593 6.7505L1.3395 7.065C1.1175 7.3395 1 7.663 1 8.0005C1 8.5485 1.3055 9.0525 1.7985 9.316L1.998 9.4235L2.0495 9.6445C2.2335 10.443 2.9335 11.0005 3.75 11.0005C4.715 11.0005 5.5 10.2155 5.5 9.2505V2Z" fill="#E2E1DF"/>
</svg>
