<svg width="12" height="12" viewBox="0 0 12 12" fill="none" xmlns="http://www.w3.org/2000/svg">
<path d="M6 0C4.81331 0 3.65328 0.351894 2.66658 1.01118C1.67989 1.67047 0.910851 2.60754 0.456726 3.7039C0.00259972 4.80026 -0.11622 6.00666 0.115291 7.17054C0.346802 8.33443 0.918247 9.40353 1.75736 10.2426C2.59648 11.0818 3.66558 11.6532 4.82946 11.8847C5.99335 12.1162 7.19975 11.9974 8.2961 11.5433C9.39246 11.0892 10.3295 10.3201 10.9888 9.33342C11.6481 8.34673 12 7.18669 12 6C11.9983 4.40923 11.3656 2.88411 10.2407 1.75926C9.1159 0.634414 7.59077 0.00172054 6 0V0ZM11 6C11.0003 6.97459 10.7141 7.92778 10.177 8.741C9.74589 8.26108 9.50511 7.6401 9.5 6.995V6H6.5C6.36739 6 6.24022 5.94732 6.14645 5.85355C6.05268 5.75979 6 5.63261 6 5.5V5H7.5V3H8.957L9.5115 2.4455C9.9831 2.90954 10.3576 3.46282 10.6131 4.07309C10.8687 4.68335 11.0002 5.33839 11 6ZM1.0245 6.4815L3.043 8.5H5C5.13261 8.5 5.25979 8.55268 5.35356 8.64645C5.44732 8.74022 5.5 8.86739 5.5 9V10.9745C4.3501 10.8571 3.2762 10.3456 2.46047 9.52666C1.64473 8.70774 1.13739 7.63185 1.0245 6.4815ZM6.5 10.9745V9C6.5 8.60218 6.34197 8.22064 6.06066 7.93934C5.77936 7.65804 5.39783 7.5 5 7.5H3.457L1.0815 5.1245C1.22459 4.3111 1.56737 3.54595 2.07909 2.89769C2.59081 2.24943 3.25546 1.73835 4.0134 1.41031C4.77134 1.08226 5.59887 0.947508 6.42173 1.01814C7.2446 1.08877 8.03705 1.36258 8.728 1.815L8.543 2H6.5V4H5V5.5C5 5.89783 5.15804 6.27936 5.43934 6.56066C5.72065 6.84197 6.10218 7 6.5 7H8.5C8.49883 7.94727 8.87106 8.85683 9.536 9.5315C8.72161 10.3495 7.64856 10.8595 6.5 10.9745Z" fill="#E2E1DF"/>
</svg>
