<svg width="12" height="12" viewBox="0 0 12 12" fill="none" xmlns="http://www.w3.org/2000/svg">
<path d="M10.5 7.99984V5.99977C10.4997 5.32726 10.348 4.66345 10.0562 4.05755C9.76447 3.45164 9.34007 2.91918 8.8145 2.49963H10.1385C10.2493 2.68844 10.4193 2.83547 10.6221 2.91794C10.8248 3.00041 11.0492 3.01373 11.2603 2.95584C11.4714 2.89795 11.6576 2.77208 11.79 2.5977C11.9223 2.42333 11.9935 2.21018 11.9926 1.99126C11.9916 1.77233 11.9184 1.55983 11.7845 1.38666C11.6506 1.21348 11.4633 1.08929 11.2516 1.0333C11.04 0.977315 10.8158 0.992655 10.6138 1.07695C10.4117 1.16124 10.2431 1.30979 10.134 1.49959H7.929C7.81986 1.07078 7.57097 0.690561 7.22164 0.418995C6.87231 0.147429 6.44246 0 6 0C5.55754 0 5.12769 0.147429 4.77836 0.418995C4.42903 0.690561 4.18014 1.07078 4.071 1.49959H1.8615C1.75069 1.31078 1.58074 1.16375 1.37795 1.08128C1.17515 0.998812 0.950829 0.98549 0.739701 1.04338C0.528572 1.10127 0.342413 1.22714 0.21004 1.40152C0.0776665 1.57589 0.00646127 1.78904 0.0074464 2.00796C0.00843154 2.22689 0.0815521 2.43939 0.215489 2.61256C0.349427 2.78574 0.536711 2.90993 0.748352 2.96592C0.959993 3.02191 1.18419 3.00657 1.38623 2.92227C1.58827 2.83798 1.7569 2.68943 1.866 2.49963H3.1855C2.65993 2.91918 2.23553 3.45164 1.94375 4.05755C1.65198 4.66345 1.50031 5.32726 1.5 5.99977V7.99984H0V10.4999C0 10.8978 0.158035 11.2793 0.43934 11.5606C0.720644 11.842 1.10218 12 1.5 12H4V7.99984H2.5V5.99977C2.50068 5.38414 2.66388 4.77961 2.9731 4.24729C3.28231 3.71496 3.72659 3.27371 4.261 2.96815C4.43155 3.2804 4.68302 3.54097 4.98901 3.72251C5.295 3.90404 5.64422 3.99984 6 3.99984C6.35578 3.99984 6.705 3.90404 7.01099 3.72251C7.31698 3.54097 7.56845 3.2804 7.739 2.96815C8.27341 3.27371 8.71769 3.71496 9.0269 4.24729C9.33612 4.77961 9.49932 5.38414 9.5 5.99977V7.99984H8V12H10.5C10.8978 12 11.2794 11.842 11.5607 11.5606C11.842 11.2793 12 10.8978 12 10.4999V7.99984H10.5ZM3 11H1.5C1.36739 11 1.24021 10.9473 1.14645 10.8535C1.05268 10.7597 1 10.6326 1 10.4999V8.99988H3V11ZM6 2.99965C5.80222 2.99965 5.60888 2.941 5.44443 2.83111C5.27998 2.72123 5.15181 2.56504 5.07612 2.38231C5.00043 2.19958 4.98063 1.9985 5.01921 1.80451C5.0578 1.61052 5.15304 1.43233 5.29289 1.29248C5.43275 1.15262 5.61093 1.05737 5.80491 1.01879C5.99889 0.9802 6.19996 1 6.38268 1.07569C6.56541 1.15139 6.72159 1.27956 6.83147 1.44402C6.94135 1.60847 7 1.80182 7 1.99961C7 2.26484 6.89464 2.5192 6.70711 2.70674C6.51957 2.89429 6.26522 2.99965 6 2.99965ZM11 10.4999C11 10.6326 10.9473 10.7597 10.8536 10.8535C10.7598 10.9473 10.6326 11 10.5 11H9V8.99988H11V10.4999Z" fill="#F4F3F1"/>
</svg>
