<svg width="12" height="12" viewBox="0 0 12 12" fill="none" xmlns="http://www.w3.org/2000/svg">
<path d="M11.4245 3.83999L6.92451 0.318492C6.66052 0.111698 6.33485 -0.000671387 5.99951 -0.000671387C5.66417 -0.000671387 5.3385 0.111698 5.07451 0.318492L0.574509 3.83999C0.394906 3.98 0.249748 4.15928 0.150164 4.36408C0.0505807 4.56888 -0.000783741 4.79377 9.03932e-06 5.02149V12H12V5.02149C12.0007 4.79368 11.9492 4.56875 11.8494 4.36394C11.7496 4.15913 11.6043 3.9799 11.4245 3.83999ZM11 11H1.00001V5.02149C0.999766 4.94551 1.01695 4.87049 1.05023 4.80218C1.08352 4.73388 1.13202 4.67412 1.19201 4.62749L5.69201 1.10599C5.77995 1.03722 5.88837 0.999865 6.00001 0.999865C6.11164 0.999865 6.22007 1.03722 6.30801 1.10599L10.808 4.62749C10.868 4.67412 10.9165 4.73388 10.9498 4.80218C10.9831 4.87049 11.0003 4.94551 11 5.02149V11ZM6.00001 4.00299C5.505 4.0029 5.02111 4.14975 4.60966 4.42495C4.1982 4.70015 3.8777 5.0913 3.68878 5.54883C3.49985 6.00637 3.45101 6.50969 3.54843 6.99501C3.64585 7.48033 3.88515 7.92581 4.23601 8.27499L6.00001 9.99999L7.76801 8.27099C8.11773 7.92136 8.35591 7.47586 8.45241 6.99085C8.54891 6.50583 8.4994 6.00309 8.31015 5.54622C8.12089 5.08935 7.80039 4.69887 7.38918 4.42417C6.97797 4.14947 6.49453 4.0029 6.00001 4.00299ZM7.06451 7.55999L6.00001 8.59999L4.93901 7.56399C4.72943 7.35437 4.58665 7.08736 4.52871 6.79666C4.47076 6.50595 4.50024 6.2046 4.61343 5.93064C4.72662 5.65669 4.91845 5.42241 5.16468 5.25738C5.41092 5.09236 5.70052 5.00399 5.99694 5.00343C6.29336 5.00287 6.5833 5.09015 6.83016 5.25425C7.07701 5.41834 7.26971 5.6519 7.38393 5.92543C7.49815 6.19896 7.52877 6.5002 7.47192 6.79112C7.41507 7.08203 7.2733 7.34958 7.06451 7.55999ZM6.50001 6.49999C6.50001 6.59888 6.47068 6.69555 6.41574 6.77778C6.3608 6.86 6.28271 6.92409 6.19135 6.96193C6.09999 6.99978 5.99945 7.00968 5.90246 6.99038C5.80547 6.97109 5.71638 6.92347 5.64646 6.85355C5.57653 6.78362 5.52891 6.69453 5.50962 6.59754C5.49032 6.50055 5.50023 6.40001 5.53807 6.30865C5.57591 6.21729 5.64 6.1392 5.72222 6.08426C5.80445 6.02932 5.90112 5.99999 6.00001 5.99999C6.13262 5.99999 6.25979 6.05267 6.35356 6.14644C6.44733 6.24021 6.50001 6.36738 6.50001 6.49999Z" fill="#E2E1DF"/>
</svg>
