<svg width="12" height="12" viewBox="0 0 12 12" fill="none" xmlns="http://www.w3.org/2000/svg">
<path d="M6 0C2.6915 0 0 2.6915 0 6C0 9.3085 2.6915 12 6 12H12V6C12 2.6915 9.3085 0 6 0ZM11 11H6C3.243 11 1 8.757 1 6C1 3.243 3.243 1 6 1C8.757 1 11 3.243 11 6V11ZM9.209 5.297C9.5965 5.6845 9.5965 6.3155 9.209 6.703L7.56 8.352L6.853 7.645L8.502 5.996L6.853 4.3545L7.56 3.6475L9.209 5.2965V5.297ZM5.147 4.355L3.498 6.004L5.147 7.6455L4.44 8.3525L2.791 6.7035C2.4035 6.316 2.4035 5.685 2.791 5.2975L4.44 3.6485L5.147 4.3555V4.355Z" fill="#E2E1DF"/>
</svg>
