<svg width="428" height="260" viewBox="0 0 428 260" fill="none" xmlns="http://www.w3.org/2000/svg">
<path d="M427.437 232.153H332.543C330.336 232.153 328.172 232.761 326.289 233.911L307.002 245.688C299.005 250.571 288.748 244.816 288.748 235.447V107.194C288.748 103.042 286.602 99.1847 283.073 96.9961L145.032 11.3675C137.038 6.40879 126.706 12.1579 126.706 21.5649V180.089C126.706 186.717 121.333 192.089 114.706 192.089H0.5625" stroke="#353432" stroke-linecap="round"/>
<path d="M248.944 123.681L248.944 123.681L232.439 113.535C232.439 113.535 232.439 113.535 232.439 113.535C231.961 113.241 231.497 112.716 231.151 112.083C230.806 111.452 230.605 110.763 230.605 110.173V90.0969C230.605 89.4921 230.805 89.2129 230.97 89.113C231.127 89.0189 231.435 88.9773 231.915 89.2729L231.915 89.273L248.42 99.4182C248.899 99.7123 249.362 100.238 249.708 100.87C250.053 101.501 250.254 102.191 250.254 102.781V122.857C250.254 123.461 250.055 123.741 249.889 123.841C249.733 123.935 249.425 123.976 248.944 123.681Z" stroke="#E2E1DF"/>
<path d="M248.953 209.315L248.953 209.315L206.65 183.312C206.65 183.312 206.65 183.312 206.65 183.312C206.172 183.018 205.708 182.492 205.362 181.86C205.017 181.229 204.816 180.54 204.816 179.949V128.481C204.816 127.876 205.016 127.597 205.181 127.497C205.338 127.403 205.645 127.361 206.126 127.657L206.126 127.657L248.429 153.66C248.908 153.954 249.371 154.479 249.717 155.112C250.062 155.743 250.263 156.432 250.263 157.022V208.491C250.263 209.096 250.064 209.375 249.898 209.475C249.742 209.569 249.434 209.61 248.953 209.315Z" stroke="#E2E1DF"/>
<mask id="path-4-inside-1_656_5638" fill="white">
<path d="M248.601 209.887L206.298 183.884L206.386 183.738L206.298 183.884C205.116 183.152 204.148 181.385 204.148 179.949V128.481C204.148 127.729 204.403 127.163 204.872 126.909C205.311 126.665 205.888 126.723 206.484 127.094L248.787 153.097C249.97 153.829 250.937 155.597 250.937 157.032V208.501C250.937 209.252 250.683 209.819 250.214 210.073C250.038 210.17 249.833 210.219 249.627 210.219C249.305 210.219 248.963 210.112 248.601 209.887ZM205.038 127.202C204.696 127.397 204.49 127.856 204.49 128.471V179.94C204.49 181.277 205.38 182.908 206.474 183.582L248.777 209.584C249.256 209.877 249.706 209.946 250.038 209.76C250.38 209.565 250.585 209.106 250.585 208.491V157.022C250.585 155.685 249.696 154.054 248.601 153.38L206.298 127.377C205.995 127.192 205.712 127.094 205.458 127.094C205.302 127.094 205.165 127.133 205.038 127.202Z"/>
</mask>
<path d="M206.298 183.884L205.441 183.37L204.932 184.218L205.775 184.736L206.298 183.884ZM206.298 183.884L205.772 184.735L206.634 185.268L207.156 184.399L206.298 183.884ZM204.872 126.909L205.348 127.788L205.357 127.783L204.872 126.909ZM206.484 127.094L205.956 127.943L205.96 127.946L206.484 127.094ZM248.787 153.097L249.314 152.247L249.311 152.245L248.787 153.097ZM250.214 210.073L249.738 209.193L249.728 209.198L250.214 210.073ZM205.038 127.202L204.564 126.321L204.553 126.327L204.542 126.333L205.038 127.202ZM206.474 183.582L205.95 184.433L205.951 184.434L206.474 183.582ZM248.777 209.584L248.254 210.436L248.255 210.437L248.777 209.584ZM250.038 209.76L250.525 210.633L250.534 210.629L250.038 209.76ZM248.601 153.38L249.126 152.529L249.125 152.528L248.601 153.38ZM206.298 127.377L206.822 126.526L206.821 126.525L206.298 127.377ZM249.125 209.035L206.822 183.032L205.775 184.736L248.078 210.739L249.125 209.035ZM207.156 184.399L207.244 184.253L205.529 183.223L205.441 183.37L207.156 184.399ZM205.529 183.223L205.441 183.37L207.156 184.399L207.244 184.253L205.529 183.223ZM206.825 183.034C206.419 182.783 205.989 182.307 205.657 181.701C205.327 181.096 205.148 180.46 205.148 179.949H203.148C203.148 180.874 203.454 181.839 203.903 182.66C204.35 183.479 204.995 184.254 205.772 184.735L206.825 183.034ZM205.148 179.949V128.481H203.148V179.949H205.148ZM205.148 128.481C205.148 127.912 205.336 127.795 205.348 127.788L204.396 126.029C203.469 126.531 203.148 127.546 203.148 128.481H205.148ZM205.357 127.783C205.372 127.775 205.547 127.689 205.956 127.943L207.012 126.245C206.229 125.758 205.251 125.554 204.386 126.034L205.357 127.783ZM205.96 127.946L248.263 153.949L249.311 152.245L207.008 126.242L205.96 127.946ZM248.261 153.947C248.666 154.198 249.097 154.674 249.428 155.281C249.758 155.885 249.937 156.521 249.937 157.032H251.937C251.937 156.108 251.632 155.142 251.183 154.321C250.735 153.502 250.09 152.728 249.314 152.247L248.261 153.947ZM249.937 157.032V208.501H251.937V157.032H249.937ZM249.937 208.501C249.937 209.069 249.749 209.187 249.738 209.193L250.69 210.952C251.616 210.451 251.937 209.436 251.937 208.501H249.937ZM249.728 209.198C249.715 209.206 249.679 209.219 249.627 209.219V211.219C249.986 211.219 250.361 211.134 250.699 210.947L249.728 209.198ZM249.627 209.219C249.534 209.219 249.373 209.189 249.129 209.038L248.074 210.737C248.553 211.034 249.076 211.219 249.627 211.219V209.219ZM204.542 126.333C203.749 126.786 203.49 127.692 203.49 128.471H205.49C205.49 128.269 205.525 128.142 205.553 128.078C205.58 128.016 205.587 128.039 205.534 128.07L204.542 126.333ZM203.49 128.471V179.94H205.49V128.471H203.49ZM203.49 179.94C203.49 180.813 203.775 181.719 204.194 182.488C204.612 183.255 205.216 183.981 205.95 184.433L206.998 182.73C206.638 182.508 206.251 182.083 205.95 181.531C205.651 180.982 205.49 180.404 205.49 179.94H203.49ZM205.951 184.434L248.254 210.436L249.301 208.732L206.998 182.73L205.951 184.434ZM248.255 210.437C248.865 210.811 249.731 211.077 250.525 210.633L249.55 208.887C249.609 208.855 249.642 208.867 249.604 208.862C249.558 208.855 249.455 208.827 249.299 208.731L248.255 210.437ZM250.534 210.629C251.326 210.176 251.585 209.27 251.585 208.491H249.585C249.585 208.693 249.551 208.82 249.523 208.884C249.496 208.946 249.488 208.922 249.542 208.892L250.534 210.629ZM251.585 208.491V157.022H249.585V208.491H251.585ZM251.585 157.022C251.585 156.149 251.301 155.243 250.882 154.474C250.464 153.707 249.86 152.981 249.126 152.529L248.077 154.232C248.437 154.453 248.825 154.879 249.126 155.431C249.425 155.98 249.585 156.558 249.585 157.022H251.585ZM249.125 152.528L206.822 126.526L205.775 128.229L248.078 154.232L249.125 152.528ZM206.821 126.525C206.428 126.284 205.962 126.094 205.458 126.094V128.094C205.457 128.094 205.482 128.094 205.539 128.113C205.596 128.133 205.675 128.168 205.776 128.23L206.821 126.525ZM205.458 126.094C205.122 126.094 204.824 126.181 204.564 126.321L205.512 128.082C205.512 128.082 205.505 128.086 205.491 128.089C205.477 128.093 205.465 128.094 205.458 128.094V126.094Z" fill="#E2E1DF" mask="url(#path-4-inside-1_656_5638)"/>
<path d="M151.12 199.732L248.685 259.696C249.828 260.399 250.756 259.842 250.756 258.446V222.366C250.756 220.98 249.828 219.281 248.685 218.578L151.12 158.614C149.977 157.911 149.049 158.468 149.049 159.864V195.944C149.049 197.33 149.977 199.029 151.12 199.732Z" fill="#E2E1DF"/>
<path d="M218.274 84.5567C218.51 84.7013 218.818 84.6278 218.962 84.3926C219.107 84.1573 219.033 83.8494 218.798 83.7048L218.274 84.5567ZM218.798 83.7048L190.352 66.2166L189.828 67.0685L218.274 84.5567L218.798 83.7048Z" fill="#E2E1DF"/>
<path d="M218.274 94.6628C218.51 94.8074 218.818 94.734 218.962 94.4987C219.107 94.2635 219.033 93.9555 218.798 93.8109L218.274 94.6628ZM218.798 93.8109L190.352 76.3228L189.828 77.1747L218.274 94.6628L218.798 93.8109Z" fill="#C3C3BF"/>
<path d="M250.757 143.743L222.311 126.264" stroke="#F36A1D" stroke-linecap="round"/>
<path d="M245.42 163.789L209.645 141.79" stroke="#E2E1DF" stroke-linecap="round"/>
<path d="M245.42 179.481L209.645 157.491" stroke="#C3C3BF" stroke-linecap="round"/>
<path d="M245.42 194.274L209.645 172.275" stroke="#E2E1DF" stroke-linecap="round"/>
<path d="M190.172 129.829L154.387 107.839" stroke="#C3C3BF" stroke-width="2" stroke-linecap="round"/>
<path d="M190.172 145.52L154.387 123.53" stroke="#F36A1D" stroke-width="2" stroke-linecap="round"/>
<path d="M190.172 160.313L154.387 138.314" stroke="#C3C3BF" stroke-width="2" stroke-linecap="round"/>
<path d="M177.249 99.1545C177.484 99.2991 177.792 99.2256 177.937 98.9904C178.081 98.7551 178.008 98.4472 177.773 98.3026L177.249 99.1545ZM177.773 98.3026L149.326 80.8145L148.803 81.6664L177.249 99.1545L177.773 98.3026Z" fill="#B4B2AF"/>
<path d="M212.23 120.656C212.465 120.8 212.773 120.727 212.917 120.492C213.062 120.256 212.988 119.948 212.753 119.804L212.23 120.656ZM212.753 119.804L184.307 102.325L183.783 103.178L212.23 120.656L212.753 119.804Z" fill="#E2E1DF"/>
<path d="M178.413 69.7866L157.012 56.6339C155.019 55.4134 153.406 52.445 153.406 50.0331C153.406 48.793 153.817 47.8752 154.569 47.4553C155.282 47.055 156.221 47.1624 157.188 47.758L178.589 60.9108C180.582 62.1313 182.195 65.0899 182.195 67.5115C182.195 68.7516 181.784 69.6695 181.032 70.0893C180.748 70.2456 180.426 70.3237 180.084 70.3237C179.566 70.3237 178.989 70.1381 178.403 69.7769L178.413 69.7866Z" fill="#F36A1D"/>
<path d="M250.5 136.211C250.735 136.355 251.043 136.282 251.188 136.047C251.333 135.811 251.259 135.503 251.024 135.359L250.5 136.211ZM251.024 135.359L149.326 72.8564L148.803 73.7084L250.5 136.211L251.024 135.359Z" fill="#777574"/>
</svg>
