<svg width="16" height="16" viewBox="0 0 16 16" fill="none" xmlns="http://www.w3.org/2000/svg">
<path d="M12.9647 5.772C12.7996 5.43908 12.5445 5.15907 12.2283 4.96371C11.9122 4.76835 11.5477 4.66545 11.176 4.66667H4.82404C4.45241 4.66545 4.08787 4.76835 3.77174 4.96371C3.4556 5.15907 3.20051 5.43908 3.03537 5.772L1.51137 8.82C0.956934 9.93202 0.667812 11.1574 0.666706 12.4V14.6667H2.00004V16H5.33337V14.6667H10.6667V16H14V14.6667H15.3334V12.4C15.332 11.1581 15.0428 9.93341 14.4887 8.822L12.9647 5.772ZM4.23137 6.372C4.28561 6.26087 4.36986 6.16714 4.4746 6.1014C4.57934 6.03566 4.70038 6.00053 4.82404 6H11.176C11.2999 5.9996 11.4214 6.03394 11.5268 6.0991C11.6321 6.16426 11.7171 6.25765 11.772 6.36867L13.2547 9.33333H2.74537L4.23137 6.372ZM14 13.3333H2.00004V12.4C2.00027 11.8146 2.07761 11.2318 2.23004 10.6667H3.33337V11.3333C3.33337 11.5101 3.40361 11.6797 3.52863 11.8047C3.65366 11.9298 3.82323 12 4.00004 12C4.17685 12 4.34642 11.9298 4.47144 11.8047C4.59647 11.6797 4.66671 11.5101 4.66671 11.3333V10.6667H11.3334V11.3333C11.3334 11.5101 11.4036 11.6797 11.5286 11.8047C11.6537 11.9298 11.8232 12 12 12C12.1768 12 12.3464 11.9298 12.4714 11.8047C12.5965 11.6797 12.6667 11.5101 12.6667 11.3333V10.6667H13.77C13.9225 11.2318 13.9998 11.8146 14 12.4V13.3333ZM15.96 3.68534L15.3714 4.88533L8.29404 1.4C8.20246 1.35494 8.10176 1.33151 7.9997 1.33151C7.89764 1.33151 7.79695 1.35494 7.70537 1.4L0.628706 4.882L0.0400391 3.68534L7.11737 0.205338C7.39225 0.0710906 7.69413 0.00131226 8.00004 0.00131226C8.30595 0.00131226 8.60783 0.0710906 8.8827 0.205338L15.96 3.68534Z" fill="#777574"/>
</svg>
