<svg width="112" height="112" viewBox="0 0 112 112" fill="none" xmlns="http://www.w3.org/2000/svg">
<path d="M53.3667 21.5365C54.1859 18.9584 57.8031 18.9545 58.6306 21.5251L65.4758 41.9956L65.4773 42H88.5503C89.3235 42 89.9503 42.6268 89.9503 43.4C89.9503 44.1732 89.3235 44.8 88.5503 44.8L65.4537 44.8L65.4524 44.8C65.4492 44.8 65.4459 44.8 65.4427 44.8H65.1003C64.8033 44.8 64.528 44.7076 64.3014 44.5498C63.6076 44.2311 63.0611 43.6301 62.8176 42.8753L56.0013 22.4911L49.5381 42.8028C49.1743 43.9478 48.1144 44.742 46.8982 44.7393L25.3564 44.6916L40.3718 55.5662L38.7294 57.8339L23.6721 46.9288C21.5443 45.367 22.5793 41.8854 25.3067 41.8914L46.8746 41.9393L53.3667 21.5365Z" fill="#B4B2AF"/>
<path fill-rule="evenodd" clip-rule="evenodd" d="M83.02 51.9192L80.0234 53.8931C79.3777 54.3185 78.5095 54.1399 78.0841 53.4942C77.6588 52.8485 77.8374 51.9802 78.4831 51.5549L81.4798 49.5809L83.02 51.9192ZM74.4291 55.9018C74.8544 56.5475 74.6758 57.4158 74.0301 57.8411L71.0988 59.7721L71.1032 59.786L71.9265 62.4456C72.1552 63.1842 71.7418 63.9683 71.0032 64.197C70.2646 64.4256 69.4804 64.0122 69.2518 63.2736L68.4304 60.6204C68.3417 60.342 68.2984 60.0564 68.2979 59.7738C68.2974 59.4696 68.394 59.1879 68.5584 58.958C68.5574 58.6746 68.6423 58.3883 68.8197 58.1403C68.9875 57.9055 69.1939 57.6943 69.4349 57.5173C69.454 57.5033 69.4734 57.4898 69.4932 57.4768L72.4898 55.5028C73.1355 55.0775 74.0038 55.2561 74.4291 55.9018ZM39.8722 63.6584L40.6664 61.1738L43.3334 62.0263L42.5393 64.5108C42.3039 65.2473 41.516 65.6536 40.7796 65.4182C40.0431 65.1828 39.6368 64.3949 39.8722 63.6584ZM71.8218 66.8414C72.5605 66.6127 73.3446 67.0261 73.5732 67.7647L75.22 73.0839C75.4486 73.8225 75.0352 74.6067 74.2966 74.8353C73.558 75.064 72.7739 74.6506 72.5452 73.912L70.8985 68.5928C70.6698 67.8542 71.0832 67.0701 71.8218 66.8414ZM40.0438 67.7202C40.7803 67.9556 41.1865 68.7435 40.9511 69.48L39.3628 74.4492C39.1274 75.1857 38.3396 75.5919 37.6031 75.3565C36.8666 75.1211 36.4604 74.3332 36.6958 73.5967L38.284 68.6276C38.5194 67.8911 39.3073 67.4848 40.0438 67.7202ZM55.9998 68.5716C56.2717 68.4849 56.5724 68.4804 56.864 68.577C57.1377 68.6676 57.3993 68.8021 57.6382 68.979L59.8188 70.5944C60.4401 71.0547 60.5706 71.9315 60.1104 72.5528C59.6501 73.174 58.7734 73.3046 58.1521 72.8444L55.9998 71.2499L53.8475 72.8444C53.2262 73.3046 52.3494 73.174 51.8892 72.5528C51.4289 71.9315 51.5595 71.0547 52.1808 70.5944L54.3614 68.979C54.6003 68.8021 54.8619 68.6676 55.1355 68.577C55.4271 68.4804 55.7279 68.4849 55.9998 68.5716ZM49.7778 74.1168C50.2381 74.7381 50.1075 75.6149 49.4862 76.0752L45.1249 79.306C44.5036 79.7662 43.6269 79.6357 43.1666 79.0144C42.7064 78.3931 42.8369 77.5163 43.4582 77.0561L47.8195 73.8253C48.4408 73.365 49.3176 73.4956 49.7778 74.1168ZM62.2218 74.1168C62.682 73.4956 63.5588 73.365 64.1801 73.8253L68.5414 77.0561C69.1627 77.5163 69.2932 78.3931 68.833 79.0144C68.3727 79.6357 67.496 79.7662 66.8747 79.306L62.5134 76.0752C61.8921 75.6149 61.7615 74.7381 62.2218 74.1168ZM75.1153 77.4797C75.8539 77.2511 76.638 77.6645 76.8667 78.4031L77.688 81.0562C77.8726 81.6347 77.8654 82.2215 77.6964 82.7539C77.5101 83.3406 76.9733 83.7187 76.3902 83.7304C76.2096 84.2901 75.6859 84.6964 75.0657 84.7C74.4916 84.7033 73.917 84.5229 73.4166 84.1522L71.236 82.5368C70.6147 82.0765 70.4841 81.1998 70.9444 80.5785C71.4046 79.9572 72.2814 79.8266 72.9027 80.2869L74.9997 81.8403L74.1919 79.2311C73.9633 78.4925 74.3767 77.7084 75.1153 77.4797ZM36.8673 77.6586C37.6038 77.894 38.01 78.6818 37.7746 79.4183L37.0007 81.8398L39.0969 80.2869C39.7182 79.8266 40.595 79.9572 41.0552 80.5785C41.5155 81.1998 41.3849 82.0765 40.7636 82.5368L38.583 84.1522C38.0826 84.5229 37.508 84.7033 36.9339 84.7C36.3137 84.6964 35.79 84.2901 35.6094 83.7304C35.0263 83.7187 34.4895 83.3406 34.3032 82.7539C34.1335 82.2193 34.127 81.6299 34.3138 81.0491C34.3141 81.0484 34.3143 81.0477 34.3145 81.047L35.1075 78.5659C35.3429 77.8294 36.1308 77.4232 36.8673 77.6586Z" fill="#C3C3BF"/>
<path d="M37.75 83.0272C36.6791 83.8205 35.2349 82.7555 35.6473 81.4767" stroke="#C3C3BF" stroke-width="4" stroke-linecap="round" stroke-linejoin="round"/>
<path d="M76.3527 81.4767C76.7652 82.7555 75.3209 83.8205 74.25 83.0272" stroke="#C3C3BF" stroke-width="4" stroke-linecap="round" stroke-linejoin="round"/>
<path fill-rule="evenodd" clip-rule="evenodd" d="M81.1997 33.6L75.5997 33.6C74.0533 33.6 72.7997 32.3464 72.7997 30.8L72.7997 25.2L75.5997 25.2L75.5997 30.8L81.1997 30.8L81.1997 33.6Z" fill="#4F4C4A"/>
<path fill-rule="evenodd" clip-rule="evenodd" d="M50.52 88.6598L54.4798 84.7C55.5733 83.6066 57.3461 83.6066 58.4396 84.7L62.3994 88.6598L60.4195 90.6397L56.4597 86.6799L52.4999 90.6397L50.52 88.6598Z" fill="#E2E1DF"/>
<path fill-rule="evenodd" clip-rule="evenodd" d="M55.9994 53.2C54.453 53.2 53.1994 54.4536 53.1994 56C53.1994 57.5464 54.453 58.8 55.9994 58.8C57.5458 58.8 58.7994 57.5464 58.7994 56C58.7994 54.4536 57.5458 53.2 55.9994 53.2ZM50.3994 56C50.3994 52.9072 52.9066 50.4 55.9994 50.4C59.0922 50.4 61.5994 52.9072 61.5994 56C61.5994 59.0928 59.0922 61.6 55.9994 61.6C52.9066 61.6 50.3994 59.0928 50.3994 56Z" fill="#F36A1D"/>
</svg>
