<svg width="112" height="112" viewBox="0 0 112 112" fill="none" xmlns="http://www.w3.org/2000/svg">
<path fill-rule="evenodd" clip-rule="evenodd" d="M55.9994 50.4C54.453 50.4 53.1994 51.6536 53.1994 53.2C53.1994 54.7464 54.453 56 55.9994 56C57.5458 56 58.7994 54.7464 58.7994 53.2C58.7994 51.6536 57.5458 50.4 55.9994 50.4ZM50.3994 53.2C50.3994 50.1072 52.9066 47.6 55.9994 47.6C59.0922 47.6 61.5994 50.1072 61.5994 53.2C61.5994 56.2928 59.0922 58.8 55.9994 58.8C52.9066 58.8 50.3994 56.2928 50.3994 53.2Z" fill="#F36A1D"/>
<path fill-rule="evenodd" clip-rule="evenodd" d="M56.0006 19.6C52.9078 19.6 50.4006 22.1072 50.4006 25.2C50.4006 28.2928 52.9078 30.8 56.0006 30.8C59.0934 30.8 61.6006 28.2928 61.6006 25.2C61.6006 22.1072 59.0934 19.6 56.0006 19.6ZM47.6006 25.2C47.6006 20.5608 51.3614 16.8 56.0006 16.8C60.6398 16.8 64.4006 20.5608 64.4006 25.2C64.4006 29.8392 60.6398 33.6 56.0006 33.6C51.3614 33.6 47.6006 29.8392 47.6006 25.2Z" fill="#4F4C4A"/>
<path fill-rule="evenodd" clip-rule="evenodd" d="M83.9999 92.4005L84.0006 92.4003L84.0008 92.3996L83.9999 92.4005ZM85.8289 94.6733L85.0725 94.987C84.7404 95.1247 84.3774 95.2 84.0003 95.2L77.9336 95.2L77.9336 92.4L83.9999 92.4005L84.0003 86.8L86.8003 86.8L86.8003 92.4C86.8003 92.7771 86.725 93.1401 86.5873 93.4722L86.2736 94.2286L86.3657 94.4507L86.1432 94.5429L86.051 94.7654L85.8289 94.6733ZM71.4003 95.2L59.267 95.2L59.267 92.4L71.4003 92.4L71.4003 95.2ZM52.7336 95.2L40.6003 95.2L40.6003 92.4L52.7336 92.4L52.7336 95.2ZM34.067 95.2L28.0003 95.2C27.6232 95.2 27.2602 95.1247 26.9281 94.987L26.1717 94.6733L25.9496 94.7654L25.8573 94.5429L25.6349 94.4507L25.727 94.2286L25.4133 93.4722C25.2756 93.1401 25.2003 92.7771 25.2003 92.4L25.2003 86.8L28.0003 86.8L28.0003 92.4L34.067 92.4L34.067 95.2ZM25.2003 81.2L25.2003 75.6C25.2003 74.8268 25.8271 74.2 26.6003 74.2C27.3735 74.2 28.0003 74.8268 28.0003 75.6L28.0003 81.2L25.2003 81.2ZM84.0003 81.2L84.0003 74.2L86.8003 74.2L86.8003 81.2L84.0003 81.2Z" fill="#C3C3BF"/>
<path fill-rule="evenodd" clip-rule="evenodd" d="M71.0708 43.6404C80.7601 48.8682 86.8003 58.9903 86.8003 70L84.0003 70C84.0003 60.0195 78.5248 50.8437 69.7413 46.1046L69.2957 45.8642C60.9975 41.387 51.0031 41.387 42.7049 45.8642L42.2593 46.1046C33.4758 50.8437 28.0003 60.0195 28.0003 70L25.2003 70C25.2003 58.9903 31.2404 48.8682 40.9298 43.6404L41.3753 43.4C50.5034 38.475 61.4972 38.475 70.6252 43.4L71.0708 43.6404Z" fill="#E2E1DF"/>
<path fill-rule="evenodd" clip-rule="evenodd" d="M63 84C65.3196 84 67.2 82.1196 67.2 79.8L67.2 74.9L70 74.9L70 79.8C70 83.666 66.866 86.8 63 86.8L49 86.8C45.134 86.8 42 83.666 42 79.8L42 79.45C42 78.6768 42.6268 78.05 43.4 78.05C44.1732 78.05 44.8 78.6768 44.8 79.45L44.8 79.8C44.8 82.1196 46.6804 84 49 84L63 84Z" fill="#B4B2AF"/>
<path fill-rule="evenodd" clip-rule="evenodd" d="M56.7 61.6C64.0454 61.6 70 67.5546 70 74.9L67.2 74.9C67.2 69.101 62.499 64.4 56.7 64.4L55.3 64.4C49.501 64.4 44.8 69.101 44.8 74.9L42 74.9C42 67.5546 47.9546 61.6 55.3 61.6L56.7 61.6Z" fill="#B4B2AF"/>
</svg>
