<svg width="112" height="112" viewBox="0 0 112 112" fill="none" xmlns="http://www.w3.org/2000/svg">
<path fill-rule="evenodd" clip-rule="evenodd" d="M58.7996 36.4C58.7996 34.8536 57.546 33.6 55.9996 33.6C54.4532 33.6 53.1996 34.8536 53.1996 36.4C53.1996 37.9464 54.4532 39.2 55.9996 39.2C57.546 39.2 58.7996 37.9464 58.7996 36.4ZM55.9996 30.8C59.0924 30.8 61.5996 33.3072 61.5996 36.4C61.5996 39.4928 59.0924 42 55.9996 42C52.9068 42 50.3996 39.4928 50.3996 36.4C50.3996 33.3072 52.9068 30.8 55.9996 30.8Z" fill="#F36A1D"/>
<path fill-rule="evenodd" clip-rule="evenodd" d="M61.6992 23.5598L57.7394 27.5196C56.646 28.613 54.8731 28.613 53.7796 27.5196L49.8198 23.5598L51.7997 21.5799L55.7595 25.5397L59.7193 21.5799L61.6992 23.5598Z" fill="#C3C3BF"/>
<path fill-rule="evenodd" clip-rule="evenodd" d="M33.6004 47.6C32.054 47.6 30.8004 48.8536 30.8004 50.4C30.8004 51.9464 32.054 53.2 33.6004 53.2H81.2004C84.2932 53.2 86.8004 55.7072 86.8004 58.8C86.8004 61.8928 84.2932 64.4 81.2004 64.4H22.4004V61.6H81.2004C82.7468 61.6 84.0004 60.3464 84.0004 58.8C84.0004 57.2536 82.7468 56 81.2004 56H33.6004C30.5076 56 28.0004 53.4928 28.0004 50.4C28.0004 47.3072 30.5076 44.8 33.6004 44.8H82.6004C83.3736 44.8 84.0004 45.4268 84.0004 46.2C84.0004 46.9732 83.3736 47.6 82.6004 47.6H33.6004Z" fill="#E2E1DF"/>
<path fill-rule="evenodd" clip-rule="evenodd" d="M22.3996 70.0001L27.8246 70.0001C28.5978 70.0001 29.2246 70.6269 29.2246 71.4001C29.2246 72.1733 28.5978 72.8001 27.8246 72.8001L22.3996 72.8001L22.3996 70.0001ZM35.8746 70.0001L43.9246 70.0001C44.6978 70.0001 45.3246 70.6269 45.3246 71.4001C45.3246 72.1733 44.6978 72.8001 43.9246 72.8001L35.8746 72.8001C35.1014 72.8001 34.4746 72.1733 34.4746 71.4001C34.4746 70.6269 35.1014 70.0001 35.8746 70.0001ZM51.9746 70.0001L60.0246 70.0001C60.7978 70.0001 61.4246 70.6269 61.4246 71.4001C61.4246 72.1733 60.7978 72.8001 60.0246 72.8001L51.9746 72.8001C51.2014 72.8001 50.5746 72.1733 50.5746 71.4001C50.5746 70.6269 51.2014 70.0001 51.9746 70.0001ZM68.0746 70.0001L76.1246 70.0001C76.8978 70.0001 77.5246 70.6269 77.5246 71.4001C77.5246 72.1733 76.8978 72.8001 76.1246 72.8001L68.0746 72.8001C67.3014 72.8001 66.6746 72.1733 66.6746 71.4001C66.6746 70.6269 67.3014 70.0001 68.0746 70.0001ZM84.1746 70.0001L88.1996 70.0001C88.9728 70.0001 89.5996 70.6269 89.5996 71.4001C89.5996 72.1733 88.9728 72.8001 88.1996 72.8001L84.1746 72.8001C83.4014 72.8001 82.7746 72.1733 82.7746 71.4001C82.7746 70.6269 83.4014 70.0001 84.1746 70.0001Z" fill="#B4B2AF"/>
<path fill-rule="evenodd" clip-rule="evenodd" d="M91.0004 75.6C90.2272 75.6 89.6004 76.2268 89.6004 77V78.92C89.6004 83.272 86.0724 86.8 81.7204 86.8H30.2804C25.9284 86.8 22.4004 83.272 22.4004 78.92V75.6H19.6004V78.92C19.6004 84.8184 24.382 89.6 30.2804 89.6H81.7204C87.6188 89.6 92.4004 84.8184 92.4004 78.92V77C92.4004 76.2268 91.7736 75.6 91.0004 75.6Z" fill="#4F4C4A"/>
</svg>
