<svg width="112" height="112" viewBox="0 0 112 112" fill="none" xmlns="http://www.w3.org/2000/svg">
<path fill-rule="evenodd" clip-rule="evenodd" d="M39.1997 54.5429C39.1997 45.6827 46.3824 38.5 55.2426 38.5H56.7568C65.6171 38.5 72.7997 45.6827 72.7997 54.5429C72.7997 57.9304 71.7275 61.2309 69.7366 63.9716L59.244 78.416C57.6428 80.6202 54.3567 80.6202 52.7554 78.416L42.2628 63.9716C40.272 61.2309 39.1997 57.9304 39.1997 54.5429ZM55.2426 41.3C47.9288 41.3 41.9997 47.229 41.9997 54.5429C41.9997 57.3392 42.8848 60.0636 44.5282 62.326L55.0208 76.7704C55.504 77.4354 56.4955 77.4354 56.9786 76.7704L67.4712 62.326C69.1146 60.0636 69.9997 57.3392 69.9997 54.5429C69.9997 47.229 64.0707 41.3 56.7568 41.3H55.2426Z" fill="#F36A1D"/>
<path fill-rule="evenodd" clip-rule="evenodd" d="M55.9994 52.5C54.453 52.5 53.1994 53.7536 53.1994 55.3C53.1994 56.8464 54.453 58.1 55.9994 58.1C57.5458 58.1 58.7994 56.8464 58.7994 55.3C58.7994 53.7536 57.5458 52.5 55.9994 52.5ZM50.3994 55.3C50.3994 52.2072 52.9066 49.7 55.9994 49.7C59.0922 49.7 61.5994 52.2072 61.5994 55.3C61.5994 58.3928 59.0922 60.9 55.9994 60.9C52.9066 60.9 50.3994 58.3928 50.3994 55.3Z" fill="#4F4C4A"/>
<path fill-rule="evenodd" clip-rule="evenodd" d="M37.1712 21.7C27.4668 21.7 19.5998 29.5669 19.5998 39.2713V41.8987C19.5998 46.6134 21.2491 51.1795 24.2619 54.806L25.1565 55.8829L23.0028 57.6721L22.1081 56.5953C18.6777 52.4661 16.7998 47.2669 16.7998 41.8987V39.2713C16.7998 28.0205 25.9204 18.9 37.1712 18.9H39.8839C47.0866 18.9 53.3104 23.2534 55.9998 29.5183C58.6892 23.2534 64.913 18.9 72.1157 18.9H74.8284C86.0792 18.9 95.1998 28.0205 95.1998 39.2713V41.8987C95.1998 47.2669 93.3219 52.4661 89.8915 56.5953L88.9968 57.6721L86.8431 55.8829L87.7377 54.806C90.7505 51.1795 92.3998 46.6134 92.3998 41.8987V39.2713C92.3998 29.5669 84.5328 21.7 74.8284 21.7H72.1157C64.2393 21.7 57.756 27.8952 57.3984 35.7635H54.6012C54.2436 27.8952 47.7603 21.7 39.8839 21.7H37.1712Z" fill="#E2E1DF"/>
<path fill-rule="evenodd" clip-rule="evenodd" d="M28.5471 63.2894C29.1604 62.8186 30.0393 62.9341 30.5101 63.5474L32.447 66.0705C32.9178 66.6838 32.8023 67.5626 32.189 68.0335C31.5756 68.5043 30.6968 68.3888 30.2259 67.7755L28.2891 65.2525C27.8182 64.6391 27.9338 63.7603 28.5471 63.2894ZM83.4521 63.2894C84.0654 63.7603 84.1809 64.6391 83.7101 65.2525L81.7732 67.7755C81.3024 68.3888 80.4235 68.5043 79.8102 68.0335C79.1969 67.5626 79.0814 66.6838 79.5522 66.0705L81.4891 63.5474C81.9599 62.9341 82.8388 62.8186 83.4521 63.2894ZM34.3577 70.8585C34.971 70.3877 35.8499 70.5032 36.3207 71.1165L40.1944 76.1626C40.6652 76.7759 40.5497 77.6547 39.9364 78.1256C39.3231 78.5964 38.4442 78.4809 37.9734 77.8676L34.0997 72.8215C33.6288 72.2082 33.7444 71.3293 34.3577 70.8585ZM77.6415 70.8585C78.2548 71.3293 78.3703 72.2082 77.8995 72.8215L74.0258 77.8676C73.5549 78.4809 72.6761 78.5964 72.0627 78.1256C71.4494 77.6547 71.3339 76.7759 71.8047 76.1626L75.6785 71.1165C76.1493 70.5032 77.0282 70.3877 77.6415 70.8585ZM42.1051 80.9506C42.7185 80.4798 43.5973 80.5953 44.0682 81.2086L46.005 83.7316C46.6101 84.5198 47.283 85.2115 48.007 85.8082C48.6036 86.3 48.6887 87.1823 48.1969 87.779C47.7051 88.3756 46.8228 88.4607 46.2261 87.9689C45.3391 87.2378 44.5184 86.3933 43.784 85.4366L41.8471 82.9136C41.3763 82.3003 41.4918 81.4214 42.1051 80.9506ZM69.894 80.9506C70.5073 81.4214 70.6229 82.3003 70.152 82.9136L68.2152 85.4366C67.4808 86.3933 66.6601 87.2378 65.773 87.9689C65.1764 88.4607 64.294 88.3756 63.8023 87.779C63.3105 87.1823 63.3955 86.3 63.9922 85.8082C64.7161 85.2115 65.3891 84.5198 65.9941 83.7316L67.931 81.2086C68.4018 80.5953 69.2807 80.4798 69.894 80.9506ZM51.4557 89.3818C51.6297 88.6284 52.3815 88.1588 53.1349 88.3329C55.0168 88.7677 56.9823 88.7677 58.8643 88.3329C59.6176 88.1588 60.3694 88.6285 60.5435 89.3818C60.7176 90.1352 60.248 90.887 59.4946 91.061C57.1979 91.5917 54.8012 91.5917 52.5046 91.061C51.7512 90.887 51.2816 90.1352 51.4557 89.3818Z" fill="#C3C3BF"/>
</svg>
