<svg width="56" height="56" viewBox="0 0 56 56" fill="none" xmlns="http://www.w3.org/2000/svg">
<path fill-rule="evenodd" clip-rule="evenodd" d="M19.9346 4.86563C24.8762 3.14281 30.2397 3.04761 35.2393 4.59397C40.239 6.14033 44.6121 9.24699 47.7182 13.4589C50.8242 17.6708 52.5 22.7667 52.5 28C52.5 28.4832 52.1083 28.875 51.625 28.875C51.1418 28.875 50.75 28.4832 50.75 28C50.75 23.1405 49.1939 18.4086 46.3097 14.4976C43.4255 10.5865 39.3648 7.70174 34.7222 6.26583C30.0797 4.82992 25.0993 4.91833 20.5107 6.51809C15.922 8.11785 11.9662 11.1449 9.22261 15.1559C6.47903 19.1668 5.09188 23.9509 5.26434 28.8074C5.4368 33.6639 7.15981 38.3375 10.181 42.1437C13.2022 45.95 17.3628 48.6888 22.0533 49.959C26.7439 51.2293 31.718 50.9642 36.247 49.2026C36.6974 49.0274 37.2045 49.2505 37.3797 49.7009C37.5548 50.1513 37.3318 50.6584 36.8814 50.8336C32.004 52.7307 26.6473 53.0162 21.5959 51.6482C16.5445 50.2803 12.0639 47.3307 8.8103 43.2317C5.55672 39.1327 3.70117 34.0995 3.51544 28.8695C3.32971 23.6394 4.82357 18.4873 7.77819 14.1679C10.7328 9.84836 14.9929 6.58846 19.9346 4.86563Z" fill="#777574"/>
<path fill-rule="evenodd" clip-rule="evenodd" d="M52.2563 31.4461C52.1254 32.3681 51.9423 33.2795 51.7086 34.1763L50.0152 33.7352C50.2321 32.9025 50.4021 32.0561 50.5237 31.2L52.2563 31.4461ZM49.7054 39.3632C49.2756 40.1843 48.7985 40.9822 48.2758 41.7529C47.753 42.5236 47.1881 43.2619 46.5842 43.9649L45.2568 42.8245C45.8175 42.1718 46.3421 41.4862 46.8275 40.7705C47.3129 40.0549 47.7559 39.314 48.155 38.5516L49.7054 39.3632ZM42.5058 47.7442C41.759 48.2929 40.9798 48.8001 40.1717 49.2627L39.3022 47.744C40.0527 47.3144 40.7762 46.8434 41.4697 46.3339L42.5058 47.7442Z" fill="#D9D9D9"/>
<path fill-rule="evenodd" clip-rule="evenodd" d="M19.9556 17.3436C24.3981 12.8855 31.6019 12.8855 36.0444 17.3436C40.1062 21.4199 40.5006 27.8946 36.9646 32.4367L30.4548 40.7989C29.208 42.4004 26.792 42.4004 25.5453 40.7989L19.0354 32.4367C15.4994 27.8946 15.8938 21.4199 19.9556 17.3436ZM34.8048 18.5789C31.0462 14.807 24.9538 14.807 21.1953 18.5789C17.7561 22.0302 17.4215 27.5149 20.4163 31.3617L26.9261 39.7239C27.4722 40.4254 28.5278 40.4254 29.0739 39.7239L35.5837 31.3617C38.5785 27.5149 38.2439 22.0302 34.8048 18.5789Z" fill="#4F4C4A"/>
<path fill-rule="evenodd" clip-rule="evenodd" d="M28 22.75C27.0335 22.75 26.25 23.5335 26.25 24.5C26.25 25.4665 27.0335 26.25 28 26.25C28.9665 26.25 29.75 25.4665 29.75 24.5C29.75 23.5335 28.9665 22.75 28 22.75ZM24.5 24.5C24.5 22.567 26.067 21 28 21C29.933 21 31.5 22.567 31.5 24.5C31.5 26.433 29.933 28 28 28C26.067 28 24.5 26.433 24.5 24.5Z" fill="#F36A1D"/>
</svg>
