<svg width="56" height="56" viewBox="0 0 56 56" fill="none" xmlns="http://www.w3.org/2000/svg">
<path fill-rule="evenodd" clip-rule="evenodd" d="M17.5 26.25C16.5335 26.25 15.75 27.0335 15.75 28C15.75 28.9665 16.5335 29.75 17.5 29.75C18.4665 29.75 19.25 28.9665 19.25 28C19.25 27.0335 18.4665 26.25 17.5 26.25ZM14 28C14 26.067 15.567 24.5 17.5 24.5C19.433 24.5 21 26.067 21 28C21 29.933 19.433 31.5 17.5 31.5C15.567 31.5 14 29.933 14 28Z" fill="#F36A1D"/>
<path fill-rule="evenodd" clip-rule="evenodd" d="M25.7961 7.15003C27.1601 6.36666 28.8399 6.36666 30.2039 7.15003C30.623 7.39071 30.7676 7.92552 30.5269 8.34458C30.2862 8.76363 29.7514 8.90823 29.3324 8.66756C28.5081 8.19415 27.4919 8.19415 26.6676 8.66756L11.8289 17.1899C11.0052 17.663 10.5 18.5357 10.5 19.4776V36.5224C10.5 37.4643 11.0052 38.337 11.8289 38.8101L26.6676 47.3324C27.4919 47.8059 28.5081 47.8059 29.3324 47.3324L44.1711 38.8101C44.9949 38.337 45.5 37.4643 45.5 36.5224H47.25C47.25 38.094 46.4071 39.5439 45.0426 40.3276L30.2039 48.85C28.8399 49.6333 27.1601 49.6333 25.7961 48.85L10.9574 40.3276C9.59287 39.5439 8.75 38.094 8.75 36.5224V19.4776C8.75 17.906 9.59287 16.4561 10.9574 15.6724L25.7961 7.15003Z" fill="#777574"/>
<path fill-rule="evenodd" clip-rule="evenodd" d="M32.9313 9.18444C33.1746 8.76688 33.7103 8.62558 34.1279 8.86884L35.4964 9.6661L38.2332 11.2605L45.076 15.2469C46.4236 16.032 47.2499 17.4801 47.2499 19.0429V32.8124H45.4999V19.0429C45.4999 18.0976 45.0001 17.228 44.1951 16.759L37.3525 12.7727L34.6156 11.1783L33.2469 10.381C32.8294 10.1377 32.6881 9.602 32.9313 9.18444Z" fill="#4F4C4A"/>
<path fill-rule="evenodd" clip-rule="evenodd" d="M28 29.75L28 27.125C28 26.6418 28.3918 26.25 28.875 26.25C29.3582 26.25 29.75 26.6418 29.75 27.125L29.75 29.75L28 29.75Z" fill="#777574"/>
<path fill-rule="evenodd" clip-rule="evenodd" d="M22.75 29.75L22.75 27.125C22.75 26.6418 23.1418 26.25 23.625 26.25C24.1082 26.25 24.5 26.6418 24.5 27.125L24.5 29.75L22.75 29.75Z" fill="#4F4C4A"/>
<path fill-rule="evenodd" clip-rule="evenodd" d="M40.25 29.75L40.25 27.125C40.25 26.6418 40.6418 26.25 41.125 26.25C41.6082 26.25 42 26.6418 42 27.125L42 29.75L40.25 29.75Z" fill="#777574"/>
<path d="M35 29.75C34.0335 29.75 33.25 28.9665 33.25 28C33.25 27.0335 34.0335 26.25 35 26.25C35.9665 26.25 36.75 27.0335 36.75 28C36.75 28.9665 35.9665 29.75 35 29.75Z" fill="#C3C3BF"/>
<path fill-rule="evenodd" clip-rule="evenodd" d="M33.6875 28C33.6875 28.7249 34.2751 29.3125 35 29.3125C35.7249 29.3125 36.3125 28.7249 36.3125 28C36.3125 27.2751 35.7249 26.6875 35 26.6875C34.2751 26.6875 33.6875 27.2751 33.6875 28ZM33.25 28C33.25 28.9665 34.0335 29.75 35 29.75C35.9665 29.75 36.75 28.9665 36.75 28C36.75 27.0335 35.9665 26.25 35 26.25C34.0335 26.25 33.25 27.0335 33.25 28Z" fill="#C3C3BF"/>
</svg>
