<svg width="56" height="56" viewBox="0 0 56 56" fill="none" xmlns="http://www.w3.org/2000/svg">
<g clip-path="url(#clip0_442_5883)">
<path d="M49 9.33334H7C5.14348 9.33334 3.36301 10.0708 2.05025 11.3836C0.737498 12.6964 0 14.4768 0 16.3333L0 46.6667H56V16.3333C56 14.4768 55.2625 12.6964 53.9497 11.3836C52.637 10.0708 50.8565 9.33334 49 9.33334ZM51.3333 42H4.66667V16.3333C4.66667 15.7145 4.9125 15.121 5.35008 14.6834C5.78767 14.2458 6.38116 14 7 14H49C49.6188 14 50.2123 14.2458 50.6499 14.6834C51.0875 15.121 51.3333 15.7145 51.3333 16.3333V42ZM28 18.6667C26.154 18.6667 24.3495 19.2141 22.8147 20.2396C21.2798 21.2652 20.0835 22.7229 19.3771 24.4283C18.6707 26.1337 18.4859 28.0104 18.846 29.8209C19.2061 31.6313 20.095 33.2944 21.4003 34.5997C22.7056 35.905 24.3687 36.7939 26.1792 37.154C27.9896 37.5141 29.8663 37.3293 31.5717 36.6229C33.2772 35.9165 34.7348 34.7202 35.7604 33.1853C36.7859 31.6505 37.3333 29.846 37.3333 28C37.3333 25.5247 36.35 23.1507 34.5997 21.4003C32.8493 19.65 30.4754 18.6667 28 18.6667ZM28 32.6667C27.077 32.6667 26.1748 32.393 25.4073 31.8802C24.6399 31.3674 24.0418 30.6386 23.6886 29.7859C23.3354 28.9331 23.2429 27.9948 23.423 27.0896C23.6031 26.1843 24.0475 25.3528 24.7002 24.7002C25.3528 24.0475 26.1843 23.6031 27.0896 23.423C27.9948 23.2429 28.9331 23.3354 29.7859 23.6886C30.6386 24.0418 31.3674 24.6399 31.8802 25.4074C32.393 26.1748 32.6667 27.077 32.6667 28C32.6667 29.2377 32.175 30.4247 31.2998 31.2998C30.4247 32.175 29.2377 32.6667 28 32.6667ZM14 21C14 21.4615 13.8632 21.9126 13.6068 22.2963C13.3504 22.6801 12.986 22.9791 12.5596 23.1557C12.1332 23.3323 11.6641 23.3785 11.2115 23.2885C10.7588 23.1985 10.3431 22.9762 10.0168 22.6499C9.69043 22.3236 9.4682 21.9078 9.37817 21.4552C9.28813 21.0026 9.33434 20.5334 9.51095 20.1071C9.68755 19.6807 9.98662 19.3163 10.3703 19.0599C10.7541 18.8035 11.2052 18.6667 11.6667 18.6667C12.2855 18.6667 12.879 18.9125 13.3166 19.3501C13.7542 19.7877 14 20.3812 14 21ZM46.6667 21C46.6667 21.4615 46.5298 21.9126 46.2734 22.2963C46.017 22.6801 45.6526 22.9791 45.2263 23.1557C44.7999 23.3323 44.3307 23.3785 43.8781 23.2885C43.4255 23.1985 43.0097 22.9762 42.6834 22.6499C42.3571 22.3236 42.1349 21.9078 42.0448 21.4552C41.9548 21.0026 42.001 20.5334 42.1776 20.1071C42.3542 19.6807 42.6533 19.3163 43.037 19.0599C43.4207 18.8035 43.8718 18.6667 44.3333 18.6667C44.9522 18.6667 45.5457 18.9125 45.9832 19.3501C46.4208 19.7877 46.6667 20.3812 46.6667 21ZM14 35C14 35.4615 13.8632 35.9126 13.6068 36.2963C13.3504 36.6801 12.986 36.9791 12.5596 37.1557C12.1332 37.3323 11.6641 37.3785 11.2115 37.2885C10.7588 37.1985 10.3431 36.9762 10.0168 36.6499C9.69043 36.3236 9.4682 35.9078 9.37817 35.4552C9.28813 35.0026 9.33434 34.5334 9.51095 34.1071C9.68755 33.6807 9.98662 33.3163 10.3703 33.0599C10.7541 32.8035 11.2052 32.6667 11.6667 32.6667C12.2855 32.6667 12.879 32.9125 13.3166 33.3501C13.7542 33.7877 14 34.3812 14 35ZM46.6667 35C46.6667 35.4615 46.5298 35.9126 46.2734 36.2963C46.017 36.6801 45.6526 36.9791 45.2263 37.1557C44.7999 37.3323 44.3307 37.3785 43.8781 37.2885C43.4255 37.1985 43.0097 36.9762 42.6834 36.6499C42.3571 36.3236 42.1349 35.9078 42.0448 35.4552C41.9548 35.0026 42.001 34.5334 42.1776 34.1071C42.3542 33.6807 42.6533 33.3163 43.037 33.0599C43.4207 32.8035 43.8718 32.6667 44.3333 32.6667C44.9522 32.6667 45.5457 32.9125 45.9832 33.3501C46.4208 33.7877 46.6667 34.3812 46.6667 35Z" fill="black"/>
</g>
<defs>
<clipPath id="clip0_442_5883">
<rect width="56" height="56" fill="white"/>
</clipPath>
</defs>
</svg>
