<svg width="56" height="56" viewBox="0 0 56 56" fill="none" xmlns="http://www.w3.org/2000/svg">
<g clip-path="url(#clip0_442_5879)">
<path d="M49 23.3333H41.2837L31.374 3.647C30.7716 2.54308 29.883 1.62183 28.8015 0.980076C27.72 0.338322 26.4856 -0.000232644 25.228 1.19942e-07H16.6367L23.4033 23.3333H14.9333L9.56665 17.9783C8.9596 17.3719 8.2213 16.913 7.40876 16.6372C6.59621 16.3614 5.73115 16.2761 4.88037 16.3877C4.02958 16.4993 3.21582 16.8049 2.50192 17.281C1.78801 17.7571 1.19306 18.3908 0.762985 19.1333C0.264033 19.9814 -0.000626023 20.9468 -0.00390591 21.9308C-0.00718579 22.9148 0.251031 23.8819 0.744318 24.7333L7.94965 37.3333H23.3777L16.3777 56H25.228C26.4639 56.007 27.6792 55.6834 28.748 55.0627C29.8167 54.4419 30.7 53.5467 31.3063 52.4697L40.7493 37.3333H56V30.3333C56 28.4768 55.2625 26.6963 53.9497 25.3836C52.637 24.0708 50.8565 23.3333 49 23.3333ZM22.848 4.66667H25.228C25.6348 4.66317 26.0354 4.76729 26.389 4.96849C26.7426 5.16969 27.0368 5.46081 27.2417 5.81233L36.0617 23.3333H28.2567L22.848 4.66667ZM51.3333 32.6667H38.1593L27.2767 50.1177C27.0759 50.4856 26.7796 50.7927 26.4191 51.0066C26.0586 51.2206 25.6472 51.3334 25.228 51.3333H23.1L30.1 32.6667H10.6563L4.79499 22.4C4.7126 22.2573 4.66945 22.0954 4.66991 21.9306C4.67038 21.7659 4.71444 21.6042 4.79763 21.462C4.88082 21.3198 5.00017 21.2021 5.14355 21.121C5.28694 21.0398 5.44924 20.9981 5.61399 21C5.73754 20.9996 5.85994 21.0237 5.97409 21.071C6.08825 21.1182 6.19188 21.1877 6.27899 21.2753L13.0037 28H49C49.6188 28 50.2123 28.2458 50.6499 28.6834C51.0875 29.121 51.3333 29.7145 51.3333 30.3333V32.6667Z" fill="black"/>
</g>
<defs>
<clipPath id="clip0_442_5879">
<rect width="56" height="56" fill="white"/>
</clipPath>
</defs>
</svg>
