<svg width="56" height="56" viewBox="0 0 56 56" fill="none" xmlns="http://www.w3.org/2000/svg">
<g clip-path="url(#clip0_442_5875)">
<path d="M48.6267 19.4973C49.1995 19.2123 49.7245 18.84 50.183 18.3937C53.0507 15.526 54.8007 6.20668 55.2697 3.41835L55.811 0.191345L52.5817 0.730345C49.7817 1.19701 40.474 2.94935 37.604 5.81701C37.1582 6.27585 36.7859 6.80082 36.5003 7.37335C35.2707 5.37368 34.0037 3.64001 33.3643 2.78601L31.5 0.305679L29.6333 2.78601C27.4059 5.66591 25.5262 8.7987 24.0333 12.1193L22.1667 9.63901L20.3 12.1193C18.0726 14.9992 16.1929 18.132 14.7 21.4527L12.8333 18.9723L10.9667 21.4527C9.48967 23.4173 4.66668 30.121 4.66668 33.8333C4.66668 36.7173 7.18901 41.412 8.71501 43.9857L0.100342 52.6003L3.39968 55.8997L12.0143 47.285C14.588 48.811 19.285 51.3333 22.1667 51.3333C25.879 51.3333 32.5827 46.5103 34.5473 45.0333L37.0277 43.1667L34.5473 41.3C37.8682 39.8076 41.0011 37.9279 43.8807 35.7L46.361 33.8333L43.8807 31.9667C47.2016 30.4743 50.3344 28.5946 53.214 26.3667L55.6943 24.5L53.214 22.6333C52.3623 21.9963 50.6333 20.7293 48.6267 19.4973ZM40.9033 9.11635C43.7297 7.53329 46.8176 6.47108 50.0197 5.98035C49.5305 9.1821 48.4681 12.2695 46.8837 15.0943C44.653 16.1494 42.1721 16.5607 39.7203 16.282C39.4503 13.8302 39.8596 11.3513 40.9033 9.11635ZM31.5 8.23668C33.0832 10.3116 34.2697 12.661 35 15.1667C34.9355 16.5587 34.4713 17.9026 33.663 19.0377L30.8 21.903C29.4808 19.8381 28.5332 17.5583 28 15.1667C28.7303 12.661 29.9169 10.3116 31.5 8.23668ZM22.1667 17.57C23.7498 19.645 24.9364 21.9943 25.6667 24.5C25.6017 25.8915 25.1384 27.2351 24.332 28.371L21.4667 31.2363C20.1475 29.1715 19.1999 26.8916 18.6667 24.5C19.397 21.9943 20.5835 19.645 22.1667 17.57ZM9.33334 33.8333C10.0636 31.3277 11.2502 28.9783 12.8333 26.9033C14.4165 28.9783 15.603 31.3277 16.3333 33.8333C16.2701 35.2245 15.8067 36.5678 14.9987 37.702L12.1333 40.5697C10.8142 38.5048 9.86652 36.225 9.33334 33.8333ZM22.1667 46.6667C19.7756 46.134 17.4965 45.1863 15.4327 43.8667L18.298 41.0037C19.4319 40.1948 20.7753 39.7306 22.1667 39.6667C24.673 40.3973 27.023 41.5838 29.099 43.1667C27.023 44.7496 24.673 45.9361 22.1667 46.6667ZM31.5 37.3333C29.109 36.8006 26.8298 35.853 24.766 34.5333L27.6313 31.668C28.766 30.8609 30.1091 30.3976 31.5 30.3333C34.0063 31.0639 36.3564 32.2504 38.4323 33.8333C36.3564 35.4163 34.0063 36.6028 31.5 37.3333ZM40.8333 28C38.4427 27.4662 36.1637 26.5186 34.0993 25.2L36.9647 22.3323C38.0996 21.5261 39.4426 21.0636 40.8333 21C43.3396 21.7306 45.6897 22.9171 47.7657 24.5C45.6897 26.0829 43.3396 27.2694 40.8333 28Z" fill="black"/>
</g>
<defs>
<clipPath id="clip0_442_5875">
<rect width="56" height="56" fill="white"/>
</clipPath>
</defs>
</svg>
