<svg width="56" height="56" viewBox="0 0 56 56" fill="none" xmlns="http://www.w3.org/2000/svg">
<g clip-path="url(#clip0_442_5881)">
<path d="M56 29.5143C56.0004 28.2606 55.7987 27.0149 55.4027 25.8253L52.2783 16.4523C51.8136 15.0587 50.9222 13.8466 49.7304 12.9877C48.5386 12.1288 47.1067 11.6667 45.6377 11.6667H39.6667V9.33334C39.6667 7.47683 38.9292 5.69635 37.6164 4.3836C36.3037 3.07084 34.5232 2.33334 32.6667 2.33334H7C5.14348 2.33334 3.36301 3.07084 2.05025 4.3836C0.737498 5.69635 0 7.47683 0 9.33334L0 45.5C0.019962 47.1133 0.515028 48.6849 1.42331 50.0183C2.33159 51.3518 3.61278 52.3879 5.10671 52.9972C6.60064 53.6065 8.24102 53.7618 9.82278 53.4439C11.4045 53.126 12.8575 52.3489 14 51.2097C15.1425 52.3489 16.5955 53.126 18.1772 53.4439C19.759 53.7618 21.3994 53.6065 22.8933 52.9972C24.3872 52.3879 25.6684 51.3518 26.5767 50.0183C27.485 48.6849 27.98 47.1133 28 45.5V44.3334H35V45.5C35 47.666 35.8604 49.7432 37.392 51.2747C38.9235 52.8063 41.0007 53.6667 43.1667 53.6667C45.3326 53.6667 47.4098 52.8063 48.9414 51.2747C50.4729 49.7432 51.3333 47.666 51.3333 45.5V44.3334H56V29.5143ZM45.6377 16.3333C46.1272 16.3337 46.6042 16.488 47.0012 16.7745C47.3981 17.0609 47.695 17.4649 47.8497 17.9293L50.4303 25.6667H39.6667V16.3333H45.6377ZM4.66667 9.33334C4.66667 8.71451 4.9125 8.12101 5.35008 7.68343C5.78767 7.24584 6.38116 7.00001 7 7.00001H32.6667C33.2855 7.00001 33.879 7.24584 34.3166 7.68343C34.7542 8.12101 35 8.71451 35 9.33334V39.6667H4.66667V9.33334ZM8.16667 49C7.23841 49 6.34817 48.6313 5.69179 47.9749C5.03542 47.3185 4.66667 46.4283 4.66667 45.5V44.3334H11.6667V45.5C11.6667 46.4283 11.2979 47.3185 10.6415 47.9749C9.98516 48.6313 9.09492 49 8.16667 49ZM23.3333 45.5C23.3333 46.4283 22.9646 47.3185 22.3082 47.9749C21.6518 48.6313 20.7616 49 19.8333 49C18.9051 49 18.0148 48.6313 17.3585 47.9749C16.7021 47.3185 16.3333 46.4283 16.3333 45.5V44.3334H23.3333V45.5ZM46.6667 45.5C46.6667 46.4283 46.2979 47.3185 45.6415 47.9749C44.9852 48.6313 44.0949 49 43.1667 49C42.2384 49 41.3482 48.6313 40.6918 47.9749C40.0354 47.3185 39.6667 46.4283 39.6667 45.5V44.3334H46.6667V45.5ZM39.6667 39.6667V30.3333H51.3333V39.6667H39.6667Z" fill="black"/>
</g>
<defs>
<clipPath id="clip0_442_5881">
<rect width="56" height="56" fill="white"/>
</clipPath>
</defs>
</svg>
