<svg width="56" height="56" viewBox="0 0 56 56" fill="none" xmlns="http://www.w3.org/2000/svg">
<g clip-path="url(#clip0_442_5877)">
<path d="M45.3764 20.202C44.7984 19.0368 43.9055 18.0567 42.7991 17.373C41.6926 16.6892 40.4167 16.3291 39.116 16.3333H16.884C15.5833 16.3291 14.3074 16.6892 13.201 17.373C12.0945 18.0567 11.2017 19.0368 10.6237 20.202L5.28968 30.87C3.34915 34.7621 2.33722 39.051 2.33335 43.4V51.3333H7.00002V56H18.6667V51.3333H37.3334V56H49V51.3333H53.6667V43.4C53.6617 39.0534 52.6498 34.767 50.7104 30.877L45.3764 20.202ZM14.8097 22.302C14.9995 21.913 15.2944 21.585 15.661 21.3549C16.0276 21.1248 16.4512 21.0019 16.884 21H39.116C39.5496 20.9986 39.9748 21.1188 40.3436 21.3469C40.7123 21.5749 41.0097 21.9018 41.202 22.2903L46.3914 32.6667H9.60868L14.8097 22.302ZM49 46.6667H7.00002V43.4C7.00084 41.3512 7.2715 39.3114 7.80502 37.3333H11.6667V39.6667C11.6667 40.2855 11.9125 40.879 12.3501 41.3166C12.7877 41.7542 13.3812 42 14 42C14.6189 42 15.2123 41.7542 15.6499 41.3166C16.0875 40.879 16.3333 40.2855 16.3333 39.6667V37.3333H39.6667V39.6667C39.6667 40.2855 39.9125 40.879 40.3501 41.3166C40.7877 41.7542 41.3812 42 42 42C42.6189 42 43.2124 41.7542 43.6499 41.3166C44.0875 40.879 44.3334 40.2855 44.3334 39.6667V37.3333H48.195C48.7285 39.3114 48.9992 41.3512 49 43.4V46.6667ZM55.86 12.8987L53.7997 17.0987L29.029 4.9C28.7085 4.74229 28.3561 4.66028 27.9988 4.66028C27.6416 4.66028 27.2892 4.74229 26.9687 4.9L2.20035 17.087L0.140015 12.8987L24.9107 0.718667C25.8728 0.248802 26.9293 0.00457764 28 0.00457764C29.0707 0.00457764 30.1273 0.248802 31.0893 0.718667L55.86 12.8987Z" fill="black"/>
</g>
<defs>
<clipPath id="clip0_442_5877">
<rect width="56" height="56" fill="white"/>
</clipPath>
</defs>
</svg>
