<svg width="56" height="56" viewBox="0 0 56 56" fill="none" xmlns="http://www.w3.org/2000/svg">
<g clip-path="url(#clip0_442_5890)">
<path d="M1.19942e-07 51.3333H56V56H1.19942e-07V51.3333ZM56 18.4543V23.3333H49V42H53.6667V46.6667H2.33333V42H7V23.3333H1.19942e-07V18.4543C-0.000232644 17.1968 0.338322 15.9624 0.980076 14.8809C1.62183 13.7994 2.54308 12.9107 3.647 12.3083L24.647 0.854005C25.675 0.291344 26.8281 -0.00357056 28 -0.00357056C29.1719 -0.00357056 30.325 0.291344 31.353 0.854005L52.353 12.3083C53.4569 12.9107 54.3782 13.7994 55.0199 14.8809C55.6617 15.9624 56.0002 17.1968 56 18.4543ZM11.6667 42H18.6667V23.3333H11.6667V42ZM23.3333 23.3333V42H32.6667V23.3333H23.3333ZM44.3333 23.3333H37.3333V42H44.3333V23.3333ZM51.3333 18.4543C51.3334 18.0351 51.2206 17.6237 51.0066 17.2632C50.7927 16.9027 50.4856 16.6065 50.1177 16.4057L29.1177 4.95134C28.7748 4.76427 28.3905 4.66624 28 4.66624C27.6095 4.66624 27.2252 4.76427 26.8823 4.95134L5.88233 16.4057C5.51436 16.6065 5.20728 16.9027 4.99336 17.2632C4.77944 17.6237 4.66659 18.0351 4.66667 18.4543V18.6667H51.3333V18.4543Z" fill="black"/>
</g>
<defs>
<clipPath id="clip0_442_5890">
<rect width="56" height="56" fill="white"/>
</clipPath>
</defs>
</svg>
