<svg width="56" height="56" viewBox="0 0 56 56" fill="none" xmlns="http://www.w3.org/2000/svg">
<g clip-path="url(#clip0_442_5885)">
<path d="M24.6937 47.901C22.4839 50.0518 19.5161 51.246 16.4324 51.2254C13.3488 51.2047 10.3973 49.9708 8.21644 47.7906C6.03561 45.6104 4.80086 42.6592 4.77933 39.5755C4.7578 36.4919 5.95122 33.5238 8.10138 31.3133L18.046 21.3616L14.7444 18.0623L4.80205 28.014C1.72735 31.0902 0.000615509 35.2619 0.0017095 39.6113C0.0028035 43.9606 1.73164 48.1314 4.80788 51.2061C7.88413 54.2808 12.0558 56.0076 16.4052 56.0065C20.7545 56.0054 24.9253 54.2766 28 51.2003L37.9447 41.2556L34.6454 37.9563L24.6937 47.901Z" fill="black"/>
<path d="M51.2027 4.809C49.6844 3.28023 47.8778 2.06798 45.8875 1.24249C43.8973 0.416995 41.763 -0.0053261 39.6084 -3.54005e-06C37.4549 -0.00572424 35.3216 0.415512 33.3319 1.23935C31.3422 2.06319 29.5355 3.27328 28.0164 4.79966L18.0601 14.7467L21.3594 18.0483L31.3111 8.10366C32.3973 7.01085 33.6896 6.14437 35.1131 5.5544C36.5365 4.96444 38.0629 4.6627 39.6037 4.66666C41.9237 4.66743 44.1913 5.356 46.12 6.64533C48.0487 7.93466 49.5518 9.76686 50.4393 11.9103C51.3269 14.0538 51.559 16.4122 51.1064 18.6876C50.6538 20.963 49.5367 23.0531 47.8964 24.6937L37.9517 34.6383L41.2534 37.94L51.1981 28C54.2688 24.9226 55.9938 20.7529 55.9947 16.4055C55.9955 12.058 54.2723 7.88768 51.2027 4.809Z" fill="black"/>
<path d="M34.6384 18.0642L18.0616 34.6409L21.3615 37.9407L37.9382 21.364L34.6384 18.0642Z" fill="black"/>
</g>
<defs>
<clipPath id="clip0_442_5885">
<rect width="56" height="56" fill="white"/>
</clipPath>
</defs>
</svg>
