<svg width="56" height="56" viewBox="0 0 56 56" fill="none" xmlns="http://www.w3.org/2000/svg">
<g clip-path="url(#clip0_442_5869)">
<path d="M52.017 5.35033L44.3333 13.034V44.3333H37.3333V7C37.3333 5.14348 36.5958 3.36301 35.2831 2.05025C33.9703 0.737498 32.1898 0 30.3333 0L7 0C5.14349 0 3.36301 0.737498 2.05025 2.05025C0.737498 3.36301 0 5.14348 0 7L0 56H37.3333V49H49V14.966L55.3163 8.64967L52.017 5.35033ZM7 4.66667H30.3333C30.9522 4.66667 31.5457 4.9125 31.9833 5.35008C32.4208 5.78767 32.6667 6.38116 32.6667 7V21H28C27.9908 18.7667 27.1746 16.6121 25.7017 14.9333L29.6497 10.983L26.3503 7.68367L21.791 12.243C20.3861 11.7222 18.8757 11.5506 17.3897 11.7432C15.9038 11.9357 14.487 12.4865 13.2612 13.3481C12.0354 14.2098 11.0374 15.3565 10.3532 16.6895C9.66894 18.0224 9.31894 19.5017 9.33333 21H4.66667V7C4.66667 6.38116 4.9125 5.78767 5.35008 5.35008C5.78767 4.9125 6.38116 4.66667 7 4.66667ZM23.3333 21H14C14 19.7623 14.4917 18.5753 15.3668 17.7002C16.242 16.825 17.429 16.3333 18.6667 16.3333C19.9043 16.3333 21.0913 16.825 21.9665 17.7002C22.8417 18.5753 23.3333 19.7623 23.3333 21ZM4.66667 51.3333V25.6667H32.6667V51.3333H4.66667Z" fill="black"/>
</g>
<defs>
<clipPath id="clip0_442_5869">
<rect width="56" height="56" fill="white"/>
</clipPath>
</defs>
</svg>
