<svg width="56" height="56" viewBox="0 0 56 56" fill="none" xmlns="http://www.w3.org/2000/svg">
<g clip-path="url(#clip0_442_5871)">
<path d="M44.3334 56H11.6667C9.81743 56 8.04328 55.2683 6.73173 53.9646C5.42018 52.6609 4.67778 50.8912 4.66669 49.042V12.8847L28 0L51.3334 12.8847V49.0513C51.3198 50.8989 50.5763 52.6663 49.265 53.9679C47.9538 55.2696 46.181 56 44.3334 56ZM9.33335 15.6147V49.042C9.33705 49.6584 9.58452 50.2483 10.0217 50.6829C10.4589 51.1174 11.0503 51.3613 11.6667 51.3613H44.3334C44.9498 51.3613 45.5412 51.1174 45.9783 50.6829C46.4155 50.2483 46.663 49.6584 46.6667 49.042V15.6147L28 5.306L9.33335 15.6147Z" fill="black"/>
<path d="M28 20.0013C29.933 20.0013 31.5 18.4343 31.5 16.5013C31.5 14.5683 29.933 13.0013 28 13.0013C26.067 13.0013 24.5 14.5683 24.5 16.5013C24.5 18.4343 26.067 20.0013 28 20.0013Z" fill="black"/>
</g>
<defs>
<clipPath id="clip0_442_5871">
<rect width="56" height="56" fill="white"/>
</clipPath>
</defs>
</svg>
