<svg width="16" height="16" viewBox="0 0 16 16" fill="none" xmlns="http://www.w3.org/2000/svg">
<path fill-rule="evenodd" clip-rule="evenodd" d="M1.35135 8.8565C1.60172 8.53422 2.0753 8.46891 2.40912 8.71061L8.00019 12.7588L13.5913 8.71061C13.9251 8.46891 14.3987 8.53422 14.649 8.8565C14.8994 9.17877 14.8318 9.63597 14.4979 9.87767L8.45352 14.2541C8.18488 14.4487 7.8155 14.4487 7.54686 14.2541L1.50246 9.87767C1.16864 9.63597 1.10098 9.17877 1.35135 8.8565Z" fill="#F4F3F1"/>
<path fill-rule="evenodd" clip-rule="evenodd" d="M1.20028 2.72944C1.20028 2.32659 1.53855 2.00002 1.95583 2.00002L14.0446 2.00003C14.4619 2.00003 14.8002 2.32659 14.8002 2.72944C14.8002 3.13228 14.4619 3.45885 14.0446 3.45885L1.95583 3.45885C1.53855 3.45885 1.20028 3.13228 1.20028 2.72944ZM1.20028 5.64708C1.20028 5.24424 1.53855 4.91767 1.95583 4.91767L14.0446 4.91767C14.4619 4.91767 14.8002 5.24424 14.8002 5.64708C14.8002 6.04992 14.4619 6.37649 14.0446 6.37649L1.95583 6.37649C1.53855 6.37649 1.20028 6.04992 1.20028 5.64708Z" fill="#F4F3F1"/>
</svg>
