<svg width="112" height="112" viewBox="0 0 112 112" fill="none" xmlns="http://www.w3.org/2000/svg">
<path fill-rule="evenodd" clip-rule="evenodd" d="M64.8612 23.9478C65.3355 22.9992 66.3051 22.4 67.3656 22.4H97.1351C99.2166 22.4 100.57 24.5904 99.6395 26.4522L92.6395 40.4522C92.1652 41.4008 91.1957 42 90.1351 42H60.3656C58.2842 42 56.9304 39.8095 57.8612 37.9478L64.8612 23.9478ZM97.1351 25.2L67.3656 25.2L60.3656 39.2H90.1351L97.1351 25.2Z" fill="#E2E1DF"/>
<path fill-rule="evenodd" clip-rule="evenodd" d="M41.4472 70.7739C41.6844 70.2996 42.1691 70 42.6994 70H46.8119C47.5851 70 48.2119 70.6268 48.2119 71.4C48.2119 72.1732 47.5851 72.8 46.8119 72.8H43.5647L41.8516 76.2261C41.5058 76.9177 40.6649 77.198 39.9733 76.8522C39.2817 76.5064 39.0014 75.6655 39.3472 74.9739L41.4472 70.7739ZM53.6369 71.4C53.6369 70.6268 54.2637 70 55.0369 70H63.2619C64.0351 70 64.6619 70.6268 64.6619 71.4C64.6619 72.1732 64.0351 72.8 63.2619 72.8H55.0369C54.2637 72.8 53.6369 72.1732 53.6369 71.4ZM70.0869 71.4C70.0869 70.6268 70.7137 70 71.4869 70H75.5994C76.0846 70 76.5352 70.2512 76.7903 70.664C77.0454 71.0767 77.0686 71.5921 76.8516 72.0261L74.7516 76.2261C74.4058 76.9177 73.5649 77.198 72.8733 76.8522C72.1817 76.5064 71.9014 75.6655 72.2472 74.9739L73.3342 72.8H71.4869C70.7137 72.8 70.0869 72.1732 70.0869 71.4ZM37.0255 82.7478C37.7171 83.0936 37.9974 83.9345 37.6516 84.6261L36.5647 86.8H37.4494C38.2226 86.8 38.8494 87.4268 38.8494 88.2C38.8494 88.9732 38.2226 89.6 37.4494 89.6H34.2994C33.8142 89.6 33.3636 89.3488 33.1085 88.936C32.8534 88.5233 32.8302 88.0079 33.0472 87.5739L35.1472 83.3739C35.493 82.6823 36.3339 82.402 37.0255 82.7478ZM69.9255 82.7478C70.6171 83.0936 70.8974 83.9345 70.5516 84.6261L68.4516 88.8261C68.2145 89.3004 67.7297 89.6 67.1994 89.6H63.0869C62.3137 89.6 61.6869 88.9732 61.6869 88.2C61.6869 87.4268 62.3137 86.8 63.0869 86.8H66.3342L68.0472 83.3739C68.393 82.6823 69.2339 82.402 69.9255 82.7478ZM49.3494 86.8H54.8619C55.6351 86.8 56.2619 87.4268 56.2619 88.2C56.2619 88.9732 55.6351 89.6 54.8619 89.6H49.3494V86.8Z" fill="#B4B2AF"/>
<path fill-rule="evenodd" clip-rule="evenodd" d="M41.0609 46.3478C41.5352 45.3992 42.5048 44.8 43.5653 44.8H85.2348C87.3163 44.8 88.6701 46.9905 87.7392 48.8522L80.7392 62.8522C80.2649 63.8008 79.2954 64.4 78.2348 64.4H36.5653C34.4839 64.4 33.1301 62.2095 34.0609 60.3478L41.0609 46.3478ZM85.2348 47.6L43.5653 47.6L36.5653 61.6H78.2348L85.2348 47.6Z" fill="#F36A1D"/>
<path fill-rule="evenodd" clip-rule="evenodd" d="M34.2997 33.95C32.7533 33.95 31.4997 35.2036 31.4997 36.75C31.4997 38.2964 32.7533 39.55 34.2997 39.55C35.8461 39.55 37.0997 38.2964 37.0997 36.75C37.0997 35.2036 35.8461 33.95 34.2997 33.95ZM28.6997 36.75C28.6997 33.6572 31.2069 31.15 34.2997 31.15C37.3925 31.15 39.8997 33.6572 39.8997 36.75C39.8997 39.8428 37.3925 42.35 34.2997 42.35C31.2069 42.35 28.6997 39.8428 28.6997 36.75Z" fill="#4F4C4A"/>
<path fill-rule="evenodd" clip-rule="evenodd" d="M37.1006 25.55H42.7006C44.247 25.55 45.5006 26.8036 45.5006 28.35V33.95H42.7006V28.35H37.1006V25.55Z" fill="#F36A1D"/>
<path fill-rule="evenodd" clip-rule="evenodd" d="M31.5 47.95L25.9 47.95C24.3536 47.95 23.1 46.6964 23.1 45.15L23.1 39.55L25.9 39.55L25.9 45.15L31.5 45.15L31.5 47.95Z" fill="#E2E1DF"/>
</svg>
