<svg width="112" height="112" viewBox="0 0 112 112" fill="none" xmlns="http://www.w3.org/2000/svg">
<path fill-rule="evenodd" clip-rule="evenodd" d="M55.9994 16.1C54.453 16.1 53.1994 17.3536 53.1994 18.9C53.1994 20.4464 54.453 21.7 55.9994 21.7C57.5458 21.7 58.7994 20.4464 58.7994 18.9C58.7994 17.3536 57.5458 16.1 55.9994 16.1ZM50.3994 18.9C50.3994 15.8072 52.9066 13.3 55.9994 13.3C59.0922 13.3 61.5994 15.8072 61.5994 18.9C61.5994 21.9928 59.0922 24.5 55.9994 24.5C52.9066 24.5 50.3994 21.9928 50.3994 18.9Z" fill="#F36A1D"/>
<path fill-rule="evenodd" clip-rule="evenodd" d="M56.0003 44.8C43.6291 44.8 33.6003 54.8288 33.6003 67.2C33.6003 79.5712 43.6291 89.6 56.0003 89.6C68.3715 89.6 78.4003 79.5712 78.4003 67.2C78.4003 54.8288 68.3715 44.8 56.0003 44.8ZM30.8003 67.2C30.8003 53.2824 42.0827 42 56.0003 42C69.9179 42 81.2003 53.2824 81.2003 67.2C81.2003 81.1176 69.9179 92.4 56.0003 92.4C42.0827 92.4 30.8003 81.1176 30.8003 67.2Z" fill="#B4B2AF"/>
<path fill-rule="evenodd" clip-rule="evenodd" d="M86.8001 68.6L86.8001 67.2C86.8001 65.8303 86.7059 64.4731 86.5225 63.1361L86.3323 61.7491L89.1063 61.3686L89.2966 62.7556C89.4971 64.2176 89.6001 65.7019 89.6001 67.2L89.6001 68.6L86.8001 68.6ZM22.4001 68.6L22.4001 67.2C22.4001 65.7019 22.5031 64.2176 22.7036 62.7556L22.8939 61.3686L25.6679 61.7491L25.4776 63.1361C25.2942 64.4731 25.2001 65.8303 25.2001 67.2L25.2001 68.6L22.4001 68.6ZM24.5344 55.4822L25.0874 54.1961C26.2613 51.4663 27.7965 48.9021 29.6472 46.5755L30.5187 45.4799L32.71 47.2229L31.8385 48.3186C30.142 50.4513 28.735 52.8015 27.6597 55.3022L27.1066 56.5883L24.5344 55.4822ZM84.8935 56.5883L84.3405 55.3022C83.2652 52.8015 81.8582 50.4513 80.1617 48.3186L79.2902 47.2229L81.4815 45.4799L82.353 46.5755C84.2037 48.9021 85.7389 51.4663 86.9127 54.1961L87.4658 55.4822L84.8935 56.5883ZM75.4255 43.5049L74.2966 42.677C73.2069 41.8779 72.0581 41.1466 70.8552 40.4909C70.8551 40.4909 70.8552 40.491 70.8552 40.4909C69.7174 39.8708 68.5465 39.3274 67.3507 38.8607L66.0465 38.3517L67.0645 35.7433L68.3687 36.2523C69.2425 36.5933 70.1044 36.972 70.9516 37.3884L70.9658 37.3624L73.4244 38.7024L73.4103 38.7282C74.287 39.2551 75.135 39.8196 75.9524 40.4191L77.0814 41.247L75.4255 43.5049ZM34.9188 41.247L36.0477 40.4191C36.8652 39.8196 37.7132 39.2551 38.5899 38.7282L38.5758 38.7024L39.8051 38.0324C39.8051 38.0324 39.8051 38.0324 39.8051 38.0324L41.0344 37.3624L41.0485 37.3884C41.8958 36.972 42.7577 36.5933 43.6315 36.2523L44.9357 35.7433L45.9537 38.3517L44.6495 38.8607C43.4537 39.3274 42.2828 39.8708 41.1451 40.4909C41.1451 40.4909 41.1451 40.4909 41.1451 40.4909C39.9421 41.1466 38.7932 41.8779 37.7036 42.677L36.5746 43.5049L34.9188 41.247ZM61.2529 37.1443L59.8634 36.9726C57.2993 36.6557 54.7009 36.6557 52.1368 36.9726L50.7473 37.1443L50.4039 34.3655L51.7933 34.1937C54.5856 33.8486 57.4146 33.8486 60.2069 34.1937L61.5963 34.3655L61.2529 37.1443Z" fill="#E2E1DF"/>
<path fill-rule="evenodd" clip-rule="evenodd" d="M27.9995 30.8L27.9995 36.4C27.9995 37.9464 26.7459 39.2 25.1995 39.2L19.5995 39.2L19.5995 36.4L25.1995 36.4L25.1995 30.8L27.9995 30.8Z" fill="#E2E1DF"/>
<path fill-rule="evenodd" clip-rule="evenodd" d="M95.1997 35.7L86.7997 35.7C85.2533 35.7 83.9997 34.4464 83.9997 32.9L83.9997 24.5L86.7997 24.5L86.7997 32.9L95.1997 32.9L95.1997 35.7Z" fill="#C3C3BF"/>
<path fill-rule="evenodd" clip-rule="evenodd" d="M64.6478 75.9018L64.3732 77.2746C63.5051 81.6151 59.6076 83.65 56.0004 83.65C52.3932 83.65 48.4957 81.6151 47.6276 77.2746L47.353 75.9018L50.0987 75.3526L50.3732 76.7254C50.9051 79.3849 53.3076 80.85 56.0004 80.85C58.6932 80.85 61.0957 79.3849 61.6276 76.7254L61.9022 75.3526L64.6478 75.9018Z" fill="#4F4C4A"/>
</svg>
