<svg width="112" height="112" viewBox="0 0 112 112" fill="none" xmlns="http://www.w3.org/2000/svg">
<path fill-rule="evenodd" clip-rule="evenodd" d="M95.1997 91C95.1997 91.7732 94.5729 92.4 93.7997 92.4L90.0197 92.4C89.2465 92.4 88.6197 91.7732 88.6197 91C88.6197 90.2268 89.2465 89.6 90.0197 89.6L93.7997 89.6C94.5729 89.6 95.1997 90.2268 95.1997 91ZM83.8597 91C83.8597 91.7732 83.2329 92.4 82.4597 92.4L74.8997 92.4C74.1265 92.4 73.4997 91.7732 73.4997 91C73.4997 90.2268 74.1265 89.6 74.8997 89.6L82.4597 89.6C83.2329 89.6 83.8597 90.2268 83.8597 91ZM68.7397 91C68.7397 91.7732 68.1129 92.4 67.3397 92.4L59.7797 92.4C59.0065 92.4 58.3797 91.7732 58.3797 91C58.3797 90.2268 59.0065 89.6 59.7797 89.6L67.3397 89.6C68.1129 89.6 68.7397 90.2268 68.7397 91ZM53.6196 91C53.6196 91.7732 52.9928 92.4 52.2197 92.4L44.6596 92.4C43.8864 92.4 43.2596 91.7732 43.2596 91C43.2596 90.2268 43.8864 89.6 44.6596 89.6L52.2197 89.6C52.9929 89.6 53.6196 90.2268 53.6196 91ZM38.4996 91C38.4996 91.7732 37.8728 92.4 37.0996 92.4L29.5396 92.4C28.7664 92.4 28.1396 91.7732 28.1396 91C28.1396 90.2268 28.7664 89.6 29.5396 89.6L37.0996 89.6C37.8728 89.6 38.4996 90.2268 38.4996 91ZM23.3796 91C23.3796 91.7732 22.7528 92.4 21.9796 92.4L16.7996 92.4L16.7996 89.6L21.9796 89.6C22.7528 89.6 23.3796 90.2268 23.3796 91Z" fill="#B4B2AF"/>
<path fill-rule="evenodd" clip-rule="evenodd" d="M97.9994 29.4L93.7994 29.4C93.0262 29.4 92.3994 28.7732 92.3994 28C92.3994 27.2268 93.0262 26.6 93.7994 26.6L97.9994 26.6V29.4Z" fill="#C3C3BF"/>
<path fill-rule="evenodd" clip-rule="evenodd" d="M75.6006 28C75.6006 28.7732 74.9738 29.3999 74.2006 29.3999L70.0006 29.3998L70.0006 26.5998L74.2006 26.5999C74.9738 26.6 75.6006 27.2268 75.6006 28Z" fill="#C3C3BF"/>
<path fill-rule="evenodd" clip-rule="evenodd" d="M82.5994 42L82.5994 37.8C82.5994 37.0268 83.2262 36.4 83.9994 36.4C84.7726 36.4 85.3994 37.0268 85.3994 37.8L85.3994 42L82.5994 42Z" fill="#E2E1DF"/>
<path fill-rule="evenodd" clip-rule="evenodd" d="M84.0006 19.6C83.2274 19.6 82.6006 18.9732 82.6006 18.2L82.6007 14L85.4007 14.0001L85.4006 18.2001C85.4006 18.9733 84.7738 19.6001 84.0006 19.6Z" fill="#E2E1DF"/>
<path fill-rule="evenodd" clip-rule="evenodd" d="M14.8571 38.2312C13.289 36.4173 14.5776 33.6 16.9753 33.6H43.9375C46.0377 33.6 48.0268 34.543 49.3563 36.1688L65.7626 56.2313C67.0921 57.8571 69.0813 58.8 71.1814 58.8H75.7948C77.6348 58.8 79.4008 59.5245 80.7107 60.8167L99.3531 79.2067C101.136 80.965 99.8905 84 97.3868 84H71.6992C69.0327 84 66.4814 82.9135 64.6336 80.9911L48.0616 63.7493C46.7418 62.3761 44.9194 61.6 43.0148 61.6H39.5415C36.6951 61.6 33.9893 60.3625 32.1278 58.2091L14.8571 38.2312ZM43.9375 36.4L16.9753 36.4L34.246 56.378C35.5757 57.9161 37.5084 58.8 39.5415 58.8H43.0148C45.6813 58.8 48.2326 59.8866 50.0804 61.809L66.6524 79.0508C67.9722 80.424 69.7945 81.2 71.6992 81.2L97.3868 81.2L78.7444 62.81C77.9584 62.0347 76.8988 61.6 75.7948 61.6H71.1814C68.2412 61.6 65.4564 60.2799 63.5951 58.0038L47.1888 37.9413C46.3911 36.9658 45.1976 36.4 43.9375 36.4Z" fill="#F36A1D"/>
<path fill-rule="evenodd" clip-rule="evenodd" d="M35.9902 64.81C36.537 65.3567 36.537 66.2432 35.9902 66.7899L19.1902 83.5899C18.6435 84.1366 17.7571 84.1366 17.2103 83.5899C16.6636 83.0432 16.6636 82.1567 17.2103 81.61L34.0103 64.81C34.5571 64.2633 35.4435 64.2633 35.9902 64.81Z" fill="#777574"/>
<path fill-rule="evenodd" clip-rule="evenodd" d="M52.7905 83.5899C53.3373 83.0432 53.3373 82.1568 52.7905 81.6101L35.9905 64.8101C35.4438 64.2633 34.5574 64.2633 34.0106 64.8101C33.4639 65.3568 33.4639 66.2432 34.0106 66.7899L50.8106 83.5899C51.3574 84.1367 52.2438 84.1367 52.7905 83.5899Z" fill="#777574"/>
<path fill-rule="evenodd" clip-rule="evenodd" d="M83.9994 25.2C82.453 25.2 81.1994 26.4536 81.1994 28C81.1994 29.5464 82.453 30.8 83.9994 30.8C85.5458 30.8 86.7994 29.5464 86.7994 28C86.7994 26.4536 85.5458 25.2 83.9994 25.2ZM78.3994 28C78.3994 24.9072 80.9066 22.4 83.9994 22.4C87.0922 22.4 89.5994 24.9072 89.5994 28C89.5994 31.0928 87.0922 33.6 83.9994 33.6C80.9066 33.6 78.3994 31.0928 78.3994 28Z" fill="#B4B2AF"/>
</svg>
