<svg width="113" height="112" viewBox="0 0 113 112" fill="none" xmlns="http://www.w3.org/2000/svg">
<path fill-rule="evenodd" clip-rule="evenodd" d="M39.7793 55.2429C39.7793 46.3826 46.962 39.2 55.8222 39.2H57.3364C66.1966 39.2 73.3793 46.3826 73.3793 55.2429C73.3793 58.6303 72.307 61.9309 70.3162 64.6716L59.8236 79.1159C58.2223 81.3202 54.9363 81.3202 53.335 79.1159L42.8424 64.6716C40.8516 61.9309 39.7793 58.6303 39.7793 55.2429ZM55.8222 42C48.5083 42 42.5793 47.929 42.5793 55.2429C42.5793 58.0391 43.4644 60.7636 45.1078 63.0259L55.6004 77.4703C56.0835 78.1354 57.075 78.1354 57.5582 77.4703L68.0508 63.0259C69.6942 60.7636 70.5793 58.0391 70.5793 55.2429C70.5793 47.929 64.6502 42 57.3364 42H55.8222Z" fill="#F36A1D"/>
<path fill-rule="evenodd" clip-rule="evenodd" d="M56.579 53.2C55.0326 53.2 53.779 54.4536 53.779 56C53.779 57.5464 55.0326 58.8 56.579 58.8C58.1254 58.8 59.379 57.5464 59.379 56C59.379 54.4536 58.1254 53.2 56.579 53.2ZM50.979 56C50.979 52.9072 53.4862 50.4 56.579 50.4C59.6718 50.4 62.179 52.9072 62.179 56C62.179 59.0928 59.6718 61.6 56.579 61.6C53.4862 61.6 50.979 59.0928 50.979 56Z" fill="#4F4C4A"/>
<path fill-rule="evenodd" clip-rule="evenodd" d="M27.1802 22.4C24.8606 22.4 22.9802 24.2804 22.9802 26.6V47.6H20.1802V26.6C20.1802 22.734 23.3142 19.6 27.1802 19.6H85.9802C89.8462 19.6 92.9802 22.734 92.9802 26.6V38.85C92.9802 39.6232 92.3534 40.25 91.5802 40.25C90.807 40.25 90.1802 39.6232 90.1802 38.85V26.6C90.1802 24.2804 88.2998 22.4 85.9802 22.4H27.1802Z" fill="#E2E1DF"/>
<path fill-rule="evenodd" clip-rule="evenodd" d="M21.5802 53.2C22.3534 53.2 22.9802 53.8268 22.9802 54.6V58.1984C22.9802 59.4015 23.0614 60.5924 23.2198 61.7646L23.4072 63.152L20.6324 63.527L20.445 62.1396C20.2699 60.8437 20.1802 59.5275 20.1802 58.1984V54.6C20.1802 53.8268 20.807 53.2 21.5802 53.2ZM91.5802 53.2C92.3534 53.2 92.9802 53.8268 92.9802 54.6V58.1984C92.9802 59.5275 92.8905 60.8437 92.7154 62.1396L92.5279 63.527L89.7531 63.152L89.9406 61.7646C90.099 60.5924 90.1802 59.4015 90.1802 58.1984V54.6C90.1802 53.8268 90.807 53.2 91.5802 53.2ZM91.1705 68.4513L90.6208 69.7389C89.5847 72.1658 88.2261 74.4433 86.583 76.5082L85.7113 77.6036L83.5203 75.8602L84.3921 74.7647C85.8788 72.8963 87.1081 70.8354 88.0457 68.6395L88.5954 67.3519L91.1705 68.4513ZM24.565 67.3519L25.1147 68.6395C26.0522 70.8354 27.2815 72.8963 28.7683 74.7647L29.64 75.8602L27.4491 77.6036L26.5773 76.5082C24.9342 74.4433 23.5757 72.1658 22.5396 69.7389L21.9899 68.4513L24.565 67.3519ZM82.0233 81.1378L80.8916 81.962C79.8346 82.7318 78.7191 83.4361 77.5496 84.0676L71.2416 87.4739L69.9112 85.0102L76.2191 81.6039C77.2777 81.0323 78.2871 80.3949 79.2432 79.6986L80.375 78.8744L82.0233 81.1378ZM32.7854 78.8744L33.9171 79.6986C34.8733 80.395 35.8826 81.0323 36.9412 81.6039L43.2491 85.0102L41.9187 87.4739L35.6108 84.0676C34.4413 83.4361 33.3258 82.7318 32.2688 81.962L31.1371 81.1379L32.7854 78.8744ZM63.5533 91.6256L57.2454 95.0319C56.8302 95.2561 56.3301 95.2561 55.915 95.0319L49.6071 91.6256L50.9375 89.1619L56.5802 92.2089L62.2229 89.1619L63.5533 91.6256Z" fill="#C3C3BF"/>
</svg>
